<?xml version="1.0" encoding="UTF-8" standalone="no"?>
<svg width="36px" height="33px" viewBox="0 0 36 33" version="1.1" xmlns="http://www.w3.org/2000/svg" xmlns:xlink="http://www.w3.org/1999/xlink" xmlns:sketch="http://www.bohemiancoding.com/sketch/ns">
    <!-- Generator: Sketch 3.4.4 (17249) - http://www.bohemiancoding.com/sketch -->
    <title>googleplus</title>
    <desc>Created with Sketch.</desc>
    <defs></defs>
    <g id="Page-1" stroke="none" stroke-width="1" fill="none" fill-rule="evenodd" sketch:type="MSPage">
        <g id="sbt-contact-desktop" sketch:type="MSArtboardGroup" transform="translate(-848.000000, -2221.000000)" fill="#E9ECF0">
            <g id="Footer" sketch:type="MSLayerGroup" transform="translate(-1.000000, 2146.664062)">
                <g id="Group-Copy" sketch:type="MSShapeGroup">
                    <g id="Group" transform="translate(619.000000, 70.000000)">
                        <path d="M266,11.2441406 L260.005859,11.2441406 L260.005859,5.25 L258.494141,5.25 L258.494141,11.2441406 L252.5,11.2441406 L252.5,12.7558594 L258.494141,12.7558594 L258.494141,18.75 L260.005859,18.75 L260.005859,12.7558594 L266,12.7558594 L266,11.2441406 Z M245.626953,23.4960938 C244.748047,22.9160156 243.130859,21.4570312 243.130859,20.578125 C243.130859,19.5761719 243.412109,19.0839844 244.923828,17.8710938 C246.505859,16.6582031 247.578125,14.953125 247.578125,12.9667969 C247.578125,10.5761719 246.541016,8.29101562 244.537109,7.53515625 L247.542969,7.53515625 L249.669922,6.00585938 L240.248047,6.00585938 C235.994141,6.00585938 232.039062,9.20507812 232.039062,12.9140625 C232.039062,16.7109375 234.921875,19.7519531 239.210938,19.7519531 C239.492188,19.7519531 239.791016,19.7519531 240.089844,19.7167969 C239.791016,20.2441406 239.632812,20.8769531 239.632812,21.4921875 C239.632812,22.546875 240.160156,23.3730469 240.880859,24.0761719 L239.246094,24.0761719 C234.042969,24.0761719 230,27.4160156 230,30.8789062 C230,34.2890625 234.412109,36.4160156 239.632812,36.4160156 C245.626953,36.4160156 248.914062,33.0410156 248.914062,29.6308594 C248.914062,26.9238281 248.087891,25.2890625 245.626953,23.4960938 L245.626953,23.4960938 Z M240.582031,18.7851562 C238.173828,18.7148438 235.835938,16.078125 235.414062,12.8789062 C234.992188,9.71484375 236.626953,7.25390625 239.035156,7.34179688 C241.496094,7.41210938 243.798828,9.9609375 244.203125,13.1601562 C244.625,16.3417969 243.007812,18.8730469 240.582031,18.7851562 L240.582031,18.7851562 Z M239.632812,34.921875 C235.994141,34.921875 233.410156,32.6191406 233.410156,29.8769531 C233.410156,27.1699219 236.626953,24.9550781 240.248047,24.9550781 C241.091797,25.0078125 241.882812,25.1308594 242.585938,25.3417969 C244.537109,26.7128906 245.960938,27.5039062 246.382812,29.0332031 C246.417969,29.3671875 246.453125,29.6660156 246.453125,30 C246.453125,32.7421875 244.712891,34.921875 239.632812,34.921875 L239.632812,34.921875 Z" id="googleplus"></path>
                    </g>
                </g>
            </g>
        </g>
    </g>
</svg>