<?xml version="1.0" encoding="UTF-8" standalone="no"?>
<svg width="48px" height="48px" viewBox="0 0 48 48" version="1.1" xmlns="http://www.w3.org/2000/svg" xmlns:xlink="http://www.w3.org/1999/xlink" xmlns:sketch="http://www.bohemiancoding.com/sketch/ns">
    <!-- Generator: Sketch 3.4.4 (17249) - http://www.bohemiancoding.com/sketch -->
    <title>Artboard 1</title>
    <desc>Created with Sketch.</desc>
    <defs></defs>
    <g id="Page-1" stroke="none" stroke-width="1" fill="none" fill-rule="evenodd" sketch:type="MSPage">
        <g id="Artboard-1" sketch:type="MSArtboardGroup" fill="#669DC9">
            <g id="googleplus" sketch:type="MSLayerGroup" transform="translate(0.000000, 3.000000)">
                <g id="Round-2" sketch:type="MSShapeGroup">
                    <g id="sbt-home-mobile-copy">
                        <g id="Footer">
                            <path d="M48,7.992188 L40.007812,7.992188 L40.007812,0 L37.992188,0 L37.992188,7.992188 L30,7.992188 L30,10.007812 L37.992188,10.007812 L37.992188,18 L40.007812,18 L40.007812,10.007812 L48,10.007812 L48,7.992188 L48,7.992188 Z M20.835938,24.328125 C19.664062,23.554688 17.507812,21.609375 17.507812,20.4375 C17.507812,19.101562 17.882812,18.445312 19.898438,16.828125 C22.007812,15.210938 23.4375,12.9375 23.4375,10.289062 C23.4375,7.101562 22.054688,4.054688 19.382812,3.046875 L23.390625,3.046875 L26.226562,1.007812 L13.664062,1.007812 C7.992188,1.007812 2.71875,5.273438 2.71875,10.21875 C2.71875,15.28125 6.5625,19.335938 12.28125,19.335938 C12.65625,19.335938 13.054688,19.335938 13.453125,19.289062 C13.054688,19.992188 12.84375,20.835938 12.84375,21.65625 C12.84375,23.0625 13.546875,24.164062 14.507812,25.101562 L12.328125,25.101562 C5.390625,25.101562 0,29.554688 0,34.171875 C0,38.71875 5.882812,41.554688 12.84375,41.554688 C20.835938,41.554688 25.21875,37.054688 25.21875,32.507812 C25.21875,28.898438 24.117188,26.71875 20.835938,24.328125 L20.835938,24.328125 L20.835938,24.328125 Z M14.109375,18.046875 C10.898438,17.953125 7.78125,14.4375 7.21875,10.171875 C6.65625,5.953125 8.835938,2.671875 12.046875,2.789062 C15.328125,2.882812 18.398438,6.28125 18.9375,10.546875 C19.5,14.789062 17.34375,18.164062 14.109375,18.046875 L14.109375,18.046875 L14.109375,18.046875 Z M12.84375,39.5625 C7.992188,39.5625 4.546875,36.492188 4.546875,32.835938 C4.546875,29.226562 8.835938,26.273438 13.664062,26.273438 C14.789062,26.34375 15.84375,26.507812 16.78125,26.789062 C19.382812,28.617188 21.28125,29.671875 21.84375,31.710938 C21.890625,32.15625 21.9375,32.554688 21.9375,33 C21.9375,36.65625 19.617188,39.5625 12.84375,39.5625 L12.84375,39.5625 L12.84375,39.5625 Z" id="googleplus"></path>
                        </g>
                    </g>
                </g>
            </g>
        </g>
    </g>
</svg>