<?xml version="1.0" encoding="UTF-8" standalone="no"?>
<svg width="38px" height="55px" viewBox="0 0 38 55" version="1.1" xmlns="http://www.w3.org/2000/svg" xmlns:xlink="http://www.w3.org/1999/xlink" xmlns:sketch="http://www.bohemiancoding.com/sketch/ns">
    <!-- Generator: Sketch 3.4.4 (17249) - http://www.bohemiancoding.com/sketch -->
    <title>Line</title>
    <desc>Created with Sketch.</desc>
    <defs></defs>
    <g id="Page-1" stroke="none" stroke-width="1" fill="none" fill-rule="evenodd" sketch:type="MSPage">
        <g id="sbt-blog-story" sketch:type="MSArtboardGroup" transform="translate(-781.000000, -417.000000)" fill="#FFFFFF">
            <g id="Oval-1-+-Line-Copy-8" sketch:type="MSLayerGroup" transform="translate(770.000000, 402.000000)">
                <path d="M29.407068,65.3115593 C29.407068,65.7383227 29.7523264,66.0842829 30.1782242,66.0842829 C30.604122,66.0842829 30.9493804,65.7383227 30.9493804,65.3115593 L30.9493804,16.3723987 C30.9493804,15.9456352 30.604122,15.5996751 30.1782242,15.5996751 C29.7523264,15.5996751 29.407068,15.9456352 29.407068,16.3723987 L29.407068,65.3115593 Z M47.134011,52.6223104 L32.5328323,67.8663431 C32.2379203,68.1742394 32.2479398,68.6633978 32.5552115,68.9589092 C32.8624832,69.2544206 33.3506495,69.2443807 33.6455614,68.9364845 L48.2467401,53.6924518 C48.5416521,53.3845556 48.5316326,52.8953971 48.2243609,52.5998857 C47.9170892,52.3043743 47.428923,52.3144142 47.134011,52.6223104 Z M13.2224375,52.6223104 L27.8236162,67.8663431 C28.1185282,68.1742394 28.1085086,68.6633978 27.801237,68.9589092 C27.4939653,69.2544206 27.005799,69.2443807 26.710887,68.9364845 L12.1097083,53.6924518 C11.8147964,53.3845556 11.8248159,52.8953971 12.1320876,52.5998857 C12.4393592,52.3043743 12.9275255,52.3144142 13.2224375,52.6223104 Z" id="Line" sketch:type="MSShapeGroup"></path>
            </g>
        </g>
    </g>
</svg>