<?xml version="1.0" encoding="UTF-8" standalone="no"?>
<svg width="48px" height="48px" viewBox="0 0 48 48" version="1.1" xmlns="http://www.w3.org/2000/svg" xmlns:xlink="http://www.w3.org/1999/xlink" xmlns:sketch="http://www.bohemiancoding.com/sketch/ns">
    <!-- Generator: Sketch 3.4.4 (17249) - http://www.bohemiancoding.com/sketch -->
    <title>Artboard 1</title>
    <desc>Created with Sketch.</desc>
    <defs></defs>
    <g id="Page-1" stroke="none" stroke-width="1" fill="none" fill-rule="evenodd" sketch:type="MSPage">
        <g id="Artboard-1" sketch:type="MSArtboardGroup" fill="#669DC9">
            <g id="linkedin" sketch:type="MSLayerGroup" transform="translate(0.000000, 1.000000)">
                <g id="Round-2" sketch:type="MSShapeGroup">
                    <g id="sbt-home-mobile-copy">
                        <g id="Footer">
                            <path d="M1.007812,15.992188 L1.007812,47 L10.992188,47 L10.992188,15.992188 L1.007812,15.992188 L1.007812,15.992188 Z M27,29 C27,24.992188 29.554688,23 32.554688,23 C35.554688,23 37.992188,24.992188 37.992188,30.007812 L37.992188,47 L48,47 L48,29 C48,20 43.007812,15.007812 36,15.007812 C31.992188,15.007812 28.992188,17.28125 27,20.28125 L26.671875,15.992188 L16.828125,15.992188 C16.828125,17.046875 16.992188,23 16.992188,23 L16.992188,47 L27,47 L27,29 L27,29 Z M5.953125,11 C9.65625,11 12,8.5625 12,5.492188 C11.953125,2.398438 9.65625,0.007812 6.046875,0.007812 C2.390625,0.007812 0,2.398438 0,5.492188 C0,8.5625 2.34375,11 5.882812,11 L5.953125,11 L5.953125,11 L5.953125,11 Z" id="linkedin"></path>
                        </g>
                    </g>
                </g>
            </g>
        </g>
    </g>
</svg>