<?xml version="1.0" encoding="UTF-8" standalone="no"?>
<svg width="295px" height="40px" viewBox="0 0 295 40" version="1.1" xmlns="http://www.w3.org/2000/svg" xmlns:xlink="http://www.w3.org/1999/xlink" xmlns:sketch="http://www.bohemiancoding.com/sketch/ns">
    <!-- Generator: Sketch 3.4.4 (17249) - http://www.bohemiancoding.com/sketch -->
    <title>Logo</title>
    <desc>Created with Sketch.</desc>
    <defs></defs>
    <g id="Page-1" stroke="none" stroke-width="1" fill="none" fill-rule="evenodd" sketch:type="MSPage">
        <g id="sbt-blog-index" sketch:type="MSArtboardGroup" transform="translate(-219.000000, -20.000000)">
            <g id="Masthead" sketch:type="MSLayerGroup" transform="translate(-1.000000, 0.000000)">
                <g id="Logo" transform="translate(220.000000, 20.000000)" sketch:type="MSShapeGroup">
                    <g id="SBT_Logo_Icon" fill="#E9ECF1">
                        <path d="M39.0430638,19.5934651 L34.7285679,19.5934651 C34.3613254,19.5934651 34.0629408,19.8918496 34.0629408,20.2587902 C34.0629408,20.6260327 34.3613254,20.9244173 34.7285679,20.9244173 L39.0430638,20.9244173 C39.4100043,20.9244173 39.7083889,20.6260327 39.7083889,20.2587902 C39.7083889,19.8918496 39.4100043,19.5934651 39.0430638,19.5934651" id="Shape"></path>
                        <path d="M5.35158069,19.5934651 L1.03708485,19.5934651 C0.669842308,19.5934651 0.371457744,19.8918496 0.371457744,20.2587902 C0.371457744,20.6260327 0.669842308,20.9244173 1.03708485,20.9244173 L5.35158069,20.9244173 C5.71852122,20.9244173 6.01690579,20.6260327 6.01690579,20.2587902 C6.01690579,19.8918496 5.71852122,19.5934651 5.35158069,19.5934651" id="Shape"></path>
                        <path d="M9.18225865,10.3420335 C9.30698823,10.4685751 9.47460304,10.5383392 9.65339217,10.5383392 C9.83097327,10.5383392 9.99889009,10.4685751 10.1254317,10.3420335 C10.3827431,10.0829101 10.3827431,9.66190999 10.1245257,9.40188053 L7.0730301,6.35129097 C6.82175889,6.09911373 6.38203427,6.10092578 6.13166908,6.35129097 C5.87254564,6.6104144 5.87254564,7.03352855 6.13166908,7.29265199 L9.18225865,10.3420335 L9.18225865,10.3420335 Z" id="Shape"></path>
                        <path d="M9.18346668,30.1749428 L6.13287712,33.2255324 C6.00633548,33.351168 5.93657148,33.5178767 5.93657148,33.6966659 C5.93657148,33.875153 6.00633548,34.0418618 6.13287712,34.1674974 C6.25972076,34.293133 6.42642954,34.361991 6.60310461,34.361991 C6.78068571,34.361991 6.94769651,34.293133 7.07333211,34.1674974 L10.1257337,31.1150958 C10.3818371,30.8559723 10.3818371,30.4340662 10.1236197,30.1731307 C9.87355649,29.9257856 9.43775798,29.9236716 9.18346668,30.1749428" id="Shape"></path>
                        <path d="M20.0394703,34.2813547 C19.6725298,34.2813547 19.3741452,34.5797392 19.3741452,34.9466798 L19.3741452,39.2614776 C19.3741452,39.6284181 19.6725298,39.9268027 20.0394703,39.9268027 C20.4064108,39.9268027 20.7060034,39.6284181 20.7060034,39.2614776 L20.7060034,34.9466798 C20.7060034,34.5797392 20.4064108,34.2813547 20.0394703,34.2813547" id="Shape"></path>
                        <path d="M30.8957759,30.1728287 C30.6445047,29.9254836 30.2096122,29.9236716 29.9544149,30.1746408 C29.6974055,30.4337642 29.6974055,30.8559723 29.9556229,31.1169078 L33.0068165,34.1674974 C33.1324521,34.293133 33.2994629,34.361689 33.477044,34.361689 C33.6537191,34.361689 33.8207299,34.293133 33.9472715,34.1674974 C34.0738131,34.0418618 34.1435771,33.874851 34.1435771,33.6963639 C34.1435771,33.5178767 34.0738131,33.350866 33.9481775,33.2273444 L30.8957759,30.1728287 L30.8957759,30.1728287 Z" id="Shape"></path>
                        <path d="M30.4255484,10.5383392 C30.6031295,10.5383392 30.7710463,10.4685751 30.8966819,10.3429395 L33.9469695,7.29265199 C34.2060929,7.03352855 34.2060929,6.6104144 33.9469695,6.35129097 C33.6947922,6.09911373 33.2562757,6.10092578 33.0059105,6.35129097 L29.9553209,9.40188053 C29.6961975,9.66100397 29.6961975,10.0838161 29.9544149,10.3420335 C30.0791445,10.4685751 30.2470613,10.5383392 30.4255484,10.5383392" id="Shape"></path>
                        <path d="M25.5034111,11.0683644 C25.2001944,10.8868572 24.7731542,10.9998084 24.592553,11.3039311 C24.4062136,11.6189262 24.5122187,12.0281479 24.8281197,12.2156953 C27.7038463,13.9087559 29.4902276,17.0300155 29.4902276,20.3611711 C29.4902276,25.5717267 25.2503279,29.8119284 20.0394703,29.8119284 C14.8286127,29.8119284 10.589619,25.5717267 10.589619,20.3611711 C10.589619,17.0300155 12.3760003,13.9087559 15.2517269,12.2147893 C15.5679299,12.0281479 15.673935,11.6189262 15.4872936,11.3039311 C15.3088065,11.0007144 14.8817662,10.8907833 14.5764355,11.0674583 C11.2963193,13.0000118 9.25896885,16.5616 9.25896885,20.3611711 C9.25896885,26.3059097 14.0947317,31.1425786 20.0394703,31.1425786 C25.9842089,31.1425786 30.8211798,26.3059097 30.8211798,20.3611711 C30.8211798,16.5616 28.7835273,13.0000118 25.5034111,11.0683644" id="Shape"></path>
                        <path d="M20.0394703,20.9244173 C20.4064108,20.9244173 20.7060034,20.6260327 20.7060034,20.2590922 L20.7060034,0.789197315 C20.7060034,0.422256783 20.4064108,0.123872218 20.0394703,0.123872218 C19.6725298,0.123872218 19.3741452,0.422256783 19.3741452,0.789197315 L19.3741452,20.2590922 C19.3741452,20.6260327 19.6725298,20.9244173 20.0394703,20.9244173" id="Shape"></path>
                    </g>
                    <g id="SBT_Logo_Text" transform="translate(48.000000, 14.400000)" fill="#E9ECF0">
                        <path d="M0.395748759,9.33197724 L2.28605177,8.23857311 C2.78372004,9.05122965 3.43033492,9.64777808 4.57397468,9.64777808 C5.53617622,9.64777808 6.14965612,9.16603708 6.14965612,8.50324123 C6.14965612,7.70827211 5.51976958,7.42623816 4.45848475,6.96186299 L3.87813985,6.71327435 C2.20305344,6.00063212 1.09190528,5.10597027 1.09190528,3.21598907 C1.09190528,1.47490379 2.41827004,0.14931207 4.49161975,0.14931207 C5.96757451,0.14931207 7.02885934,0.662247244 7.79160754,2.00552638 L5.98365946,3.16614271 C5.58603956,2.45350048 5.15464127,2.17146654 4.49161975,2.17146654 C3.81186987,2.17146654 3.38047158,2.60207481 3.38047158,3.16614271 C3.38047158,3.8614191 3.81186987,4.14345305 4.80624131,4.57534768 L5.38690791,4.82361473 C7.36020925,5.66875181 8.47135741,6.53125472 8.47135741,8.47076069 C8.47135741,10.558841 6.82972769,11.7033778 4.62415971,11.7033778 C2.46845507,11.7033778 1.07549863,10.6749348 0.395748759,9.33197724" id="Shape"></path>
                        <rect id="Rectangle-path" x="13.6516755" y="0.281485335" width="2.3210579" height="11.2720318"></rect>
                        <path d="M21.6816029,0.281485335 L24.0033042,0.281485335 L24.0033042,9.51399687 L29.1105967,9.51399687 L29.1105967,11.5535172 L21.6816029,11.5535172 L21.6816029,0.281485335 L21.6816029,0.281485335 Z" id="Shape"></path>
                        <rect id="Rectangle-path" x="34.3581499" y="0.281485335" width="2.3210579" height="11.2720318"></rect>
                        <path d="M42.0065424,5.91701887 C42.0065424,2.58567375 44.5765953,0.14931207 47.8106348,0.14931207 C49.8502061,0.14931207 51.3097542,0.878355355 52.320854,2.45350048 L50.5466843,3.71284477 C50.0162028,2.85034187 49.1041862,2.23739237 47.8106348,2.23739237 C45.7710635,2.23739237 44.3945137,3.81285909 44.3945137,5.91701887 C44.3945137,8.02278659 45.7710635,9.63009066 47.8106348,9.63009066 C49.2695395,9.63009066 50.082151,8.93513586 50.7120376,7.97261863 L52.5203074,9.21588345 C51.5413775,10.7411822 49.9830678,11.7033778 47.8106348,11.7033778 C44.5765953,11.7033778 42.0065424,9.24965034 42.0065424,5.91701887" id="Shape"></path>
                        <path d="M66.3083242,5.91701887 C66.3083242,3.81285909 64.9156895,2.20362548 62.8590681,2.20362548 C60.8027684,2.20362548 59.409812,3.81285909 59.409812,5.91701887 C59.409812,8.02278659 60.8027684,9.63009066 62.8590681,9.63009066 C64.9156895,9.63009066 66.3083242,8.02278659 66.3083242,5.91701887 M57.0221624,5.91701887 C57.0221624,2.58567375 59.6092653,0.13194624 62.8590681,0.13194624 C66.1091925,0.13194624 68.6962955,2.58567375 68.6962955,5.91701887 C68.6962955,9.24965034 66.1091925,11.7033778 62.8590681,11.7033778 C59.6092653,11.7033778 57.0221624,9.24965034 57.0221624,5.91701887" id="Shape"></path>
                        <path d="M77.3442066,6.31514661 C76.7799466,5.78452401 76.0007918,4.77376837 76.0007918,4.77376837 C76.0007918,4.77376837 76.1667884,6.0167116 76.1667884,6.82936814 L76.1667884,11.5535172 L73.9943554,11.5535172 L73.9943554,0.181792605 L74.2266221,0.181792605 L79.9142594,5.52017748 C80.4611476,6.03311266 81.2409459,7.06155572 81.2409459,7.06155572 C81.2409459,7.06155572 81.0916776,5.78452401 81.0916776,5.00595595 L81.0916776,0.281485335 L83.2637889,0.281485335 L83.2637889,11.6535315 L83.0321656,11.6535315 L77.3442066,6.31514661 L77.3442066,6.31514661 Z" id="Shape"></path>
                        <path d="M100.389432,9.51399687 C101.334584,9.51399687 101.931979,8.88496791 101.931979,7.95621757 C101.931979,7.0438683 101.318499,6.41483934 100.257214,6.41483934 L98.2507777,6.41483934 L98.2507777,9.51399687 L100.389432,9.51399687 L100.389432,9.51399687 Z M100.041032,4.44156647 C100.787696,4.44156647 101.285364,4.02703767 101.285364,3.38064287 C101.285364,2.73392648 100.870694,2.31971927 100.157166,2.31971927 L98.2507777,2.31971927 L98.2507777,4.44156647 L100.041032,4.44156647 L100.041032,4.44156647 Z M95.9290764,0.281485335 L100.290027,0.281485335 C102.395869,0.281485335 103.573287,1.60707705 103.573287,3.19830165 C103.573287,4.24314578 102.959485,4.955788 101.981199,5.27030248 C103.524067,5.63594969 104.270087,6.66310639 104.270087,8.07231136 C104.270087,10.0780648 102.843995,11.5535172 100.489481,11.5535172 L95.9290764,11.5535172 L95.9290764,0.281485335 L95.9290764,0.281485335 Z" id="Shape"></path>
                        <path d="M109.367728,0.281485335 L116.829857,0.281485335 L116.829857,2.31971927 L111.689429,2.31971927 L111.689429,5.9006178 L116.216055,5.9006178 L116.216055,7.89029173 L111.689429,7.89029173 L111.689429,9.51399687 L117.062124,9.51399687 L117.062124,11.5535172 L109.367728,11.5535172 L109.367728,0.281485335 L109.367728,0.281485335 Z" id="Shape"></path>
                        <path d="M128.229259,8.33697948 L127.416326,6.38107244 C127.084976,5.58610332 126.736576,4.35923957 126.736576,4.35923957 C126.736576,4.35923957 126.405226,5.58610332 126.073554,6.38107244 L125.260621,8.33697948 L128.229259,8.33697948 L128.229259,8.33697948 Z M126.670306,0.181792605 L126.869438,0.181792605 L132.026915,11.5535172 L129.589081,11.5535172 L129.058277,10.2764855 L124.481788,10.2764855 L123.950985,11.5535172 L121.712282,11.5535172 L126.670306,0.181792605 L126.670306,0.181792605 Z" id="Shape"></path>
                        <path d="M135.499655,5.91701887 C135.499655,2.58567375 138.069708,0.14931207 141.303748,0.14931207 C143.343319,0.14931207 144.802867,0.878355355 145.813967,2.45350048 L144.039797,3.71284477 C143.509316,2.85034187 142.597299,2.23739237 141.303748,2.23739237 C139.264176,2.23739237 137.887627,3.81285909 137.887627,5.91701887 C137.887627,8.02278659 139.264176,9.63009066 141.303748,9.63009066 C142.762652,9.63009066 143.575264,8.93513586 144.20515,7.97261863 L146.01342,9.21588345 C145.03449,10.7411822 143.476181,11.7033778 141.303748,11.7033778 C138.069708,11.7033778 135.499655,9.24965034 135.499655,5.91701887" id="Shape"></path>
                        <path d="M151.062485,0.281485335 L153.384187,0.281485335 L153.384187,6.05047849 L158.209349,6.05047849 L158.209349,0.281485335 L160.53105,0.281485335 L160.53105,11.5535172 L158.209349,11.5535172 L158.209349,8.12247932 L153.384187,8.12247932 L153.384187,11.5535172 L151.062485,11.5535172 L151.062485,0.281485335 L151.062485,0.281485335 Z" id="Shape"></path>
                        <path d="M176.031792,1.34240893 L172.566451,1.34240893 L172.566451,0.281485335 L180.691602,0.281485335 L180.691602,1.34240893 L177.225939,1.34240893 L177.225939,11.5535172 L176.031792,11.5535172 L176.031792,1.34240893 L176.031792,1.34240893 Z" id="Shape"></path>
                        <path d="M191.044839,8.63670085 L189.054487,3.63051787 C188.839271,3.09989528 188.623733,2.28723874 188.623733,2.28723874 C188.623733,2.28723874 188.391788,3.09989528 188.176249,3.63051787 L186.185898,8.63670085 L191.044839,8.63670085 L191.044839,8.63670085 Z M188.524006,0.165391543 L188.723137,0.165391543 L193.498758,11.5535172 L192.238342,11.5535172 L191.476237,9.66385755 L185.77155,9.66385755 L185.02553,11.5535172 L183.848112,11.5535172 L188.524006,0.165391543 L188.524006,0.165391543 Z" id="Shape"></path>
                        <path d="M198.9789,0.281485335 L200.173046,0.281485335 L200.173046,10.4925936 L205.495877,10.4925936 L205.495877,11.5535172 L198.9789,11.5535172 L198.9789,0.281485335 L198.9789,0.281485335 Z" id="Shape"></path>
                        <path d="M211.041324,0.281485335 L217.906701,0.281485335 L217.906701,1.34240893 L212.23547,1.34240893 L212.23547,6.6293395 L217.292899,6.6293395 L217.292899,7.67418362 L212.23547,7.67418362 L212.23547,10.4925936 L218.138967,10.4925936 L218.138967,11.5535172 L211.041324,11.5535172 L211.041324,0.281485335 L211.041324,0.281485335 Z" id="Shape"></path>
                        <path d="M225.790577,3.71284477 C225.475312,3.33208286 225.010779,2.66800065 225.010779,2.66800065 C225.010779,2.66800065 225.110827,3.46457772 225.110827,3.94503236 L225.110827,11.5538388 L223.982629,11.5538388 L223.982629,0.165713132 L224.18176,0.165713132 L230.913954,8.12247932 C231.229219,8.50324123 231.693753,9.16603708 231.693753,9.16603708 C231.693753,9.16603708 231.610754,8.37106796 231.610754,7.89029173 L231.610754,0.281806924 L232.721902,0.281806924 L232.721902,11.6699325 L232.522771,11.6699325 L225.790577,3.71284477 L225.790577,3.71284477 Z" id="Shape"></path>
                        <path d="M241.601758,1.34240893 L238.136417,1.34240893 L238.136417,0.281485335 L246.261568,0.281485335 L246.261568,1.34240893 L242.795905,1.34240893 L242.795905,11.5535172 L241.601758,11.5535172 L241.601758,1.34240893 L241.601758,1.34240893 Z" id="Shape"></path>
                    </g>
                </g>
            </g>
        </g>
    </g>
</svg>