<?xml version="1.0" encoding="UTF-8" standalone="no"?>
<svg width="253px" height="103px" viewBox="0 0 253 103" version="1.1" xmlns="http://www.w3.org/2000/svg" xmlns:xlink="http://www.w3.org/1999/xlink" xmlns:sketch="http://www.bohemiancoding.com/sketch/ns">
    <!-- Generator: Sketch 3.4.4 (17249) - http://www.bohemiancoding.com/sketch -->
    <title>Path</title>
    <desc>Created with Sketch.</desc>
    <defs></defs>
    <g id="Page-1" stroke="none" stroke-width="1" fill="none" fill-rule="evenodd" sketch:type="MSPage">
        <g id="sbt-desktop-work" sketch:type="MSArtboardGroup" transform="translate(-1321.000000, -329.000000)" fill="#000F2E" opacity="0.2">
            <path d="M1518.624,430.128 C1518.624,431.136 1519.488,432 1520.496,432 L1571.328,432 C1572.336,432 1573.2,431.424 1573.2,430.416 L1573.2,427.824 C1573.2,426.816 1573.056,425.952 1571.328,425.952 L1525.392,425.952 L1525.392,333.072 C1525.392,332.064 1524.528,331.2 1523.664,331.2 L1520.496,331.2 C1519.488,331.2 1518.624,332.064 1518.624,333.072 L1518.624,430.128 Z M1401.732,432 C1402.74,432 1403.46,431.28 1403.748,430.704 L1415.268,404.208 L1470.276,404.208 L1481.94,430.704 C1482.228,431.28 1482.948,432 1483.956,432 L1487.7,432 C1489.284,432 1489.284,431.136 1488.996,430.272 L1445.076,330.048 C1444.644,329.184 1443.924,329.04 1443.204,329.04 L1442.772,329.04 C1442.052,329.04 1441.332,329.472 1441.044,330.048 L1396.692,430.272 C1396.26,431.424 1396.692,432 1397.7,432 L1401.732,432 Z M1417.86,398.592 L1442.916,340.56 L1443.204,340.56 L1467.828,398.592 L1417.86,398.592 Z M1350.648,430.128 C1350.648,431.136 1351.512,432 1352.52,432 L1355.112,432 C1356.552,432 1357.416,431.136 1357.416,430.128 L1357.416,337.392 L1385.064,337.392 C1386.216,337.392 1386.936,336.528 1386.936,335.52 L1386.936,333.072 C1386.936,332.064 1386.216,331.2 1385.064,331.2 L1323.144,331.2 C1322.136,331.2 1321.272,331.92 1321.272,333.072 L1321.272,335.232 C1321.272,336.528 1321.704,337.392 1323.144,337.392 L1350.648,337.392 L1350.648,430.128 Z" id="Path" sketch:type="MSShapeGroup"></path>
        </g>
    </g>
</svg>