<?xml version="1.0" encoding="UTF-8" standalone="no"?>
<svg width="47px" height="48px" viewBox="0 0 47 48" version="1.1" xmlns="http://www.w3.org/2000/svg" xmlns:xlink="http://www.w3.org/1999/xlink" xmlns:sketch="http://www.bohemiancoding.com/sketch/ns">
    <!-- Generator: Sketch 3.4.4 (17249) - http://www.bohemiancoding.com/sketch -->
    <title>Artboard 1</title>
    <desc>Created with Sketch.</desc>
    <defs></defs>
    <g id="Page-1" stroke="none" stroke-width="1" fill="none" fill-rule="evenodd" sketch:type="MSPage">
        <g id="Artboard-1" sketch:type="MSArtboardGroup" fill="#669DC9">
            <g id="twitter" sketch:type="MSLayerGroup" transform="translate(-1.000000, 5.000000)">
                <g id="Round-2" sketch:type="MSShapeGroup">
                    <g id="sbt-home-mobile-copy">
                        <g id="Footer">
                            <path d="M48,4.601562 C46.21875,5.398438 44.34375,5.9375 42.328125,6.171875 C44.390625,4.953125 45.9375,3.007812 46.6640625,0.710938 C44.7890625,1.835938 42.65625,2.65625 40.453125,3.101562 C38.6015625,1.226562 36.046875,0.007812 33.2109375,0.007812 C27.7734375,0.007812 23.390625,4.390625 23.390625,9.828125 C23.390625,10.601562 23.4375,11.398438 23.6015625,12.101562 C15.4453125,11.65625 8.2265625,7.953125 3.328125,2 C2.5078125,3.453125 1.9921875,4.953125 1.9921875,6.78125 C1.9921875,10.15625 3.7265625,13.15625 6.3984375,14.9375 C4.78125,14.890625 3.28125,14.445312 1.9453125,13.71875 L1.9453125,13.835938 C1.9453125,18.617188 5.34375,22.601562 9.84375,23.492188 C9,23.726562 8.109375,23.84375 7.21875,23.84375 C6.609375,23.84375 6,23.773438 5.390625,23.65625 C6.609375,27.546875 10.2890625,30.453125 14.5546875,30.5 C11.2265625,33.171875 6.9375,35.164062 2.34375,35.164062 C1.546875,35.164062 0.7734375,35.117188 0,35 C4.3359375,37.789062 9.5625,39.007812 15.1171875,39.007812 C33.2109375,39.007812 43.1015625,24.007812 43.1015625,11 L43.1015625,9.710938 C45,8.328125 46.6640625,6.617188 48,4.601562 L48,4.601562 L48,4.601562 Z" id="twitter"></path>
                        </g>
                    </g>
                </g>
            </g>
        </g>
    </g>
</svg>