<?xml version="1.0" encoding="UTF-8" standalone="no"?>
<svg width="48px" height="39px" viewBox="0 0 48 39" version="1.1" xmlns="http://www.w3.org/2000/svg" xmlns:xlink="http://www.w3.org/1999/xlink" xmlns:sketch="http://www.bohemiancoding.com/sketch/ns">
    <!-- Generator: Sketch 3.4.4 (17249) - http://www.bohemiancoding.com/sketch -->
    <title>twitter</title>
    <desc>Created with Sketch.</desc>
    <defs></defs>
    <g id="Page-1" stroke="none" stroke-width="1" fill="none" fill-rule="evenodd" sketch:type="MSPage">
        <g id="sbt-blog-story" sketch:type="MSArtboardGroup" transform="translate(-657.000000, -2834.000000)" fill="#315BA6">
            <g id="Share" sketch:type="MSLayerGroup" transform="translate(619.000000, 2750.000000)">
                <path d="M86,88.6015625 C84.21875,89.3984375 82.34375,89.9375 80.328125,90.171875 C82.390625,88.953125 83.9375,87.0078125 84.6640625,84.7109375 C82.7890625,85.8359375 80.65625,86.65625 78.453125,87.1015625 C76.6015625,85.2265625 74.046875,84.0078125 71.2109375,84.0078125 C65.7734375,84.0078125 61.390625,88.390625 61.390625,93.828125 C61.390625,94.6015625 61.4375,95.3984375 61.6015625,96.1015625 C53.4453125,95.65625 46.2265625,91.953125 41.328125,86 C40.5078125,87.453125 39.9921875,88.953125 39.9921875,90.78125 C39.9921875,94.15625 41.7265625,97.15625 44.3984375,98.9375 C42.78125,98.890625 41.28125,98.4453125 39.9453125,97.71875 L39.9453125,97.8359375 C39.9453125,102.617188 43.34375,106.601562 47.84375,107.492188 C47,107.726562 46.109375,107.84375 45.21875,107.84375 C44.609375,107.84375 44,107.773438 43.390625,107.65625 C44.609375,111.546875 48.2890625,114.453125 52.5546875,114.5 C49.2265625,117.171875 44.9375,119.164062 40.34375,119.164062 C39.546875,119.164062 38.7734375,119.117188 38,119 C42.3359375,121.789062 47.5625,123.007812 53.1171875,123.007812 C71.2109375,123.007812 81.1015625,108.007812 81.1015625,95 L81.1015625,93.7109375 C83,92.328125 84.6640625,90.6171875 86,88.6015625 L86,88.6015625 Z" id="twitter" sketch:type="MSShapeGroup"></path>
            </g>
        </g>
    </g>
</svg>