<svg width="19" height="11" viewBox="0 0 19 11" xmlns="http://www.w3.org/2000/svg"><title>Line</title><path d="M17.47 5.302c.144 0 .26-.094.26-.21 0-.117-.116-.211-.26-.211H.977c-.144 0-.26.094-.26.21 0 .117.116.211.26.211H17.47zM13.194.455l5.137 3.993c.104.08.27.078.369-.007.1-.084.096-.217-.008-.298L13.554.15a.305.305 0 0 0-.368.006c-.1.084-.096.218.008.299zm0 9.273l5.137-3.993a.305.305 0 0 1 .369.007c.1.084.096.217-.008.298l-5.138 3.993a.305.305 0 0 1-.368-.006c-.1-.084-.096-.218.008-.299z" fill="#000F2E" fill-rule="evenodd"/></svg>