<?xml version="1.0" encoding="UTF-8" standalone="no"?>
<svg width="19px" height="11px" viewBox="0 0 19 11" version="1.1" xmlns="http://www.w3.org/2000/svg" xmlns:xlink="http://www.w3.org/1999/xlink">
    <!-- Generator: Sketch 3.6.1 (26313) - http://www.bohemiancoding.com/sketch -->
    <title>Line</title>
    <desc>Created with Sketch.</desc>
    <defs></defs>
    <g id="Work/Talent" stroke="none" stroke-width="1" fill="none" fill-rule="evenodd">
        <g id="sbt-desktop-talent-services-popup" transform="translate(-819.000000, -2745.000000)" fill="#000F2E">
            <g id="Group" transform="translate(320.000000, 2481.000000)">
                <g id="Group-3" transform="translate(499.000000, 75.233645)">
                    <path d="M9.53327281,201.584121 C9.53327281,201.727952 9.62769183,201.84455 9.74416358,201.84455 C9.86063534,201.84455 9.95505435,201.727952 9.95505435,201.584121 L9.95505435,185.090271 C9.95505435,184.94644 9.86063534,184.829842 9.74416358,184.829842 C9.62769183,184.829842 9.53327281,184.94644 9.53327281,185.090271 L9.53327281,201.584121 Z M14.3811216,197.307493 L10.3880864,202.445154 C10.3074358,202.548923 10.3101759,202.713783 10.3942066,202.813379 C10.4782372,202.912974 10.6117377,202.90959 10.6923883,202.805821 L14.6854235,197.668161 C14.7660741,197.564391 14.763334,197.399531 14.6793034,197.299936 C14.5952727,197.20034 14.4617722,197.203724 14.3811216,197.307493 Z M5.10720559,197.307493 L9.10024073,202.445154 C9.18089133,202.548923 9.17815125,202.713783 9.0941206,202.813379 C9.01008995,202.912974 8.87658942,202.90959 8.79593882,202.805821 L4.80290367,197.668161 C4.72225307,197.564391 4.72499315,197.399531 4.8090238,197.299936 C4.89305446,197.20034 5.02655499,197.203724 5.10720559,197.307493 Z" id="Line" transform="translate(9.744164, 193.857880) rotate(-90.000000) translate(-9.744164, -193.857880) "></path>
                </g>
            </g>
        </g>
    </g>
</svg>