<svg width="30" height="79" viewBox="0 0 30 79" xmlns="http://www.w3.org/2000/svg"><title>Oval 1 + Line Copy + Oval 1 + Line Copy 2</title><g fill="none" fill-rule="evenodd"><path fill="#CED5E0" d="M0 0h29.141v79H0z"/><path d="M21.64 45.926l-6.085 6.352a.322.322 0 0 0 .464.446l6.084-6.352a.322.322 0 0 0-.464-.446zm-14.13 0l6.083 6.352a.322.322 0 0 1-.463.446l-6.084-6.352a.322.322 0 0 1 .463-.446z" fill="#000F2E"/><g fill="#000F2E"><path d="M21.64 33.24l-6.085-6.351a.322.322 0 0 1 .464-.446l6.084 6.352a.322.322 0 0 1-.464.446zm-14.13 0l6.083-6.351a.322.322 0 0 0-.463-.446l-6.084 6.352a.322.322 0 0 0 .463.446z"/></g></g></svg>