<?xml version="1.0" encoding="UTF-8" standalone="no"?>
<svg width="30px" height="39px" viewBox="0 0 30 39" version="1.1" xmlns="http://www.w3.org/2000/svg" xmlns:xlink="http://www.w3.org/1999/xlink" xmlns:sketch="http://www.bohemiancoding.com/sketch/ns">
    <!-- Generator: Sketch 3.4.4 (17249) - http://www.bohemiancoding.com/sketch -->
    <title>Mask Copy 2 + Oval 1 + Line Copy + Oval 1 + Line Copy 2</title>
    <desc>Created with Sketch.</desc>
    <defs></defs>
    <g id="Round-2" stroke="none" stroke-width="1" fill="none" fill-rule="evenodd" sketch:type="MSPage">
        <g id="sbt-contact-mobile" sketch:type="MSArtboardGroup" transform="translate(-336.000000, -475.000000)">
            <g id="Rectangle-141-+-Electic-Vehicles-Copy-3-+-Reason-for-Contact" sketch:type="MSLayerGroup" transform="translate(9.000000, 446.000000)">
                <g id="Rectangle-141-+-Electic-Vehicles-Copy-3" transform="translate(1.000000, 29.000000)" sketch:type="MSShapeGroup">
                    <g id="Mask-Copy-2-+-Oval-1-+-Line-Copy-+-Oval-1-+-Line-Copy-2" transform="translate(326.000000, 0.000000)">
                        <rect id="Mask-Copy-2" fill="#CED5E0" x="0" y="0" width="29.140625" height="39"></rect>
                        <g id="Oval-1-+-Line-Copy-+-Oval-1-+-Line-Copy-2" transform="translate(6.000000, 10.000000)" fill="#000F2E">
                            <g id="Oval-1-+-Line-Copy" transform="translate(0.000000, 11.000000)">
                                <path d="M15.6391712,0.925962682 L9.55534678,7.27764298 C9.4324668,7.40593306 9.4366416,7.6097491 9.56467147,7.73287884 C9.69270133,7.85600858 9.89610395,7.85182529 10.0189839,7.7235352 L16.1028084,1.37185491 C16.2256884,1.24356482 16.2215136,1.03974878 16.0934837,0.916619046 C15.9654538,0.793489308 15.7620512,0.797672596 15.6391712,0.925962682 Z M1.50934895,0.925962682 L7.59317341,7.27764298 C7.7160534,7.40593306 7.71187859,7.6097491 7.58384873,7.73287884 C7.45581887,7.85600858 7.25241625,7.85182529 7.12953627,7.7235352 L1.0457118,1.37185491 C0.922831821,1.24356482 0.927006623,1.03974878 1.05503649,0.916619046 C1.18306635,0.793489308 1.38646897,0.797672596 1.50934895,0.925962682 Z" id="Line"></path>
                            </g>
                            <g id="Oval-1-+-Line-Copy-2" transform="translate(8.500000, 4.166667) scale(1, -1) translate(-8.500000, -4.166667) translate(0.000000, 0.166667)">
                                <path d="M15.6391712,0.925962682 L9.55534678,7.27764298 C9.4324668,7.40593306 9.4366416,7.6097491 9.56467147,7.73287884 C9.69270133,7.85600858 9.89610395,7.85182529 10.0189839,7.7235352 L16.1028084,1.37185491 C16.2256884,1.24356482 16.2215136,1.03974878 16.0934837,0.916619046 C15.9654538,0.793489308 15.7620512,0.797672596 15.6391712,0.925962682 Z M1.50934895,0.925962682 L7.59317341,7.27764298 C7.7160534,7.40593306 7.71187859,7.6097491 7.58384873,7.73287884 C7.45581887,7.85600858 7.25241625,7.85182529 7.12953627,7.7235352 L1.0457118,1.37185491 C0.922831821,1.24356482 0.927006623,1.03974878 1.05503649,0.916619046 C1.18306635,0.793489308 1.38646897,0.797672596 1.50934895,0.925962682 Z" id="Line"></path>
                            </g>
                        </g>
                    </g>
                </g>
            </g>
        </g>
    </g>
</svg>