<?xml version="1.0" encoding="UTF-8" standalone="no"?>
<svg width="36px" height="37px" viewBox="0 0 36 37" version="1.1" xmlns="http://www.w3.org/2000/svg" xmlns:xlink="http://www.w3.org/1999/xlink" xmlns:sketch="http://www.bohemiancoding.com/sketch/ns">
    <!-- Generator: Sketch 3.4.4 (17249) - http://www.bohemiancoding.com/sketch -->
    <title>facebook</title>
    <desc>Created with Sketch.</desc>
    <defs></defs>
    <g id="Page-1" stroke="none" stroke-width="1" fill="none" fill-rule="evenodd" sketch:type="MSPage">
        <g id="sbt-contact-desktop" sketch:type="MSArtboardGroup" transform="translate(-693.000000, -2217.000000)" fill="#E9ECF0">
            <g id="Footer" sketch:type="MSLayerGroup" transform="translate(-1.000000, 2146.664062)">
                <g id="Group-Copy" sketch:type="MSShapeGroup">
                    <g id="Group" transform="translate(619.000000, 68.000000)">
                        <path d="M111,5.25 C111,4.01953125 109.980469,3 108.75,3 L77.25,3 C76.0195312,3 75,4.01953125 75,5.25 L75,36.75 C75,37.9804688 76.0195312,39 77.25,39 L94.2480469,39 L94.2480469,25.0078125 L89.7480469,25.0078125 L89.7480469,19.8222656 L94.2480469,19.8222656 L94.2480469,15.3398438 C94.2480469,11.2441406 96.7441406,8.50195312 101.683594,8.50195312 C103.863281,8.50195312 105.375,8.74804688 105.375,8.74804688 L105.375,13.4238281 L102,13.4238281 C100.505859,13.4238281 99.75,14.2675781 99.75,15.7441406 L99.75,19.8222656 L105.005859,19.8222656 L104.25,25.0078125 L99.75,25.0078125 L99.75,39 L108.75,39 C109.980469,39 111,37.9804688 111,36.75 L111,5.25 Z" id="facebook"></path>
                    </g>
                </g>
            </g>
        </g>
    </g>
</svg>