<?xml version="1.0" encoding="UTF-8" standalone="no"?>
<svg width="37px" height="32px" viewBox="0 0 37 32" version="1.1" xmlns="http://www.w3.org/2000/svg" xmlns:xlink="http://www.w3.org/1999/xlink" xmlns:sketch="http://www.bohemiancoding.com/sketch/ns">
    <!-- Generator: Sketch 3.4.4 (17249) - http://www.bohemiancoding.com/sketch -->
    <title>google+</title>
    <desc>Created with Sketch.</desc>
    <defs></defs>
    <g id="Round-2" stroke="none" stroke-width="1" fill="none" fill-rule="evenodd" sketch:type="MSPage">
        <g id="sbt-menu-mobile" sketch:type="MSArtboardGroup" transform="translate(-169.000000, -809.000000)" fill="#315BA6">
            <path d="M205.5,815.244141 L199.505859,815.244141 L199.505859,809.25 L197.994141,809.25 L197.994141,815.244141 L192,815.244141 L192,816.755859 L197.994141,816.755859 L197.994141,822.75 L199.505859,822.75 L199.505859,816.755859 L205.5,816.755859 L205.5,815.244141 Z M185.126953,827.496094 C184.248047,826.916016 182.630859,825.457031 182.630859,824.578125 C182.630859,823.576172 182.912109,823.083984 184.423828,821.871094 C186.005859,820.658203 187.078125,818.953125 187.078125,816.966797 C187.078125,814.576172 186.041016,812.291016 184.037109,811.535156 L187.042969,811.535156 L189.169922,810.005859 L179.748047,810.005859 C175.494141,810.005859 171.539062,813.205078 171.539062,816.914062 C171.539062,820.710938 174.421875,823.751953 178.710938,823.751953 C178.992188,823.751953 179.291016,823.751953 179.589844,823.716797 C179.291016,824.244141 179.132812,824.876953 179.132812,825.492188 C179.132812,826.546875 179.660156,827.373047 180.380859,828.076172 L178.746094,828.076172 C173.542969,828.076172 169.5,831.416016 169.5,834.878906 C169.5,838.289062 173.912109,840.416016 179.132812,840.416016 C185.126953,840.416016 188.414062,837.041016 188.414062,833.630859 C188.414062,830.923828 187.587891,829.289062 185.126953,827.496094 L185.126953,827.496094 Z M180.082031,822.785156 C177.673828,822.714844 175.335938,820.078125 174.914062,816.878906 C174.492188,813.714844 176.126953,811.253906 178.535156,811.341797 C180.996094,811.412109 183.298828,813.960938 183.703125,817.160156 C184.125,820.341797 182.507812,822.873047 180.082031,822.785156 L180.082031,822.785156 Z M179.132812,838.921875 C175.494141,838.921875 172.910156,836.619141 172.910156,833.876953 C172.910156,831.169922 176.126953,828.955078 179.748047,828.955078 C180.591797,829.007812 181.382812,829.130859 182.085938,829.341797 C184.037109,830.712891 185.460938,831.503906 185.882812,833.033203 C185.917969,833.367188 185.953125,833.666016 185.953125,834 C185.953125,836.742188 184.212891,838.921875 179.132812,838.921875 L179.132812,838.921875 Z" id="google+" sketch:type="MSShapeGroup"></path>
        </g>
    </g>
</svg>