<svg width="37" height="32" viewBox="0 0 37 32" xmlns="http://www.w3.org/2000/svg"><title>google+</title><path d="M36.5 6.244h-5.994V.25h-1.512v5.994H23v1.512h5.994v5.994h1.512V7.756H36.5V6.244zM16.127 18.496c-.879-.58-2.496-2.039-2.496-2.918 0-1.002.281-1.494 1.793-2.707 1.582-1.213 2.654-2.918 2.654-4.904 0-2.39-1.037-4.676-3.04-5.432h3.005l2.127-1.53h-9.422c-4.254 0-8.209 3.2-8.209 6.91 0 3.796 2.883 6.837 7.172 6.837.281 0 .58 0 .879-.035a3.657 3.657 0 0 0-.457 1.775c0 1.055.527 1.881 1.248 2.584H9.746C4.543 19.076.5 22.416.5 25.88c0 3.41 4.412 5.537 9.633 5.537 5.994 0 9.281-3.375 9.281-6.785 0-2.707-.826-4.342-3.287-6.135zm-5.045-4.71c-2.408-.071-4.746-2.708-5.168-5.907-.422-3.164 1.213-5.625 3.621-5.537 2.461.07 4.764 2.619 5.168 5.818.422 3.182-1.195 5.713-3.621 5.625zm-.95 16.136c-3.638 0-6.222-2.303-6.222-5.045 0-2.707 3.217-4.922 6.838-4.922.844.053 1.635.176 2.338.387 1.951 1.37 3.375 2.162 3.797 3.691.035.334.07.633.07.967 0 2.742-1.74 4.922-6.82 4.922z" fill="#315BA6" fill-rule="evenodd"/></svg>