<svg width="48" height="42" viewBox="0 0 48 42" xmlns="http://www.w3.org/2000/svg"><title>googleplus</title><path d="M48 7.992h-7.992V0h-2.016v7.992H30v2.016h7.992V18h2.016v-7.992H48V7.992zM20.836 24.328c-1.172-.773-3.328-2.719-3.328-3.89 0-1.336.375-1.993 2.39-3.61 2.11-1.617 3.54-3.89 3.54-6.539 0-3.187-1.383-6.234-4.055-7.242h4.008l2.836-2.04H13.664C7.992 1.008 2.72 5.274 2.72 10.22c0 5.062 3.844 9.117 9.562 9.117.375 0 .774 0 1.172-.047a4.876 4.876 0 0 0-.61 2.367c0 1.407.704 2.508 1.665 3.446h-2.18C5.391 25.102 0 29.555 0 34.172c0 4.547 5.883 7.383 12.844 7.383 7.992 0 12.375-4.5 12.375-9.047 0-3.61-1.102-5.79-4.383-8.18zm-6.727-6.281c-3.21-.094-6.328-3.61-6.89-7.875-.563-4.219 1.617-7.5 4.828-7.383 3.281.094 6.351 3.492 6.89 7.758.563 4.242-1.593 7.617-4.828 7.5zm-1.265 21.515c-4.852 0-8.297-3.07-8.297-6.726 0-3.61 4.289-6.563 9.117-6.563 1.125.07 2.18.235 3.117.516 2.602 1.828 4.5 2.883 5.063 4.922.047.445.093.844.093 1.289 0 3.656-2.32 6.563-9.093 6.563z" fill="#315BA6" fill-rule="evenodd"/></svg>