<?xml version="1.0" encoding="UTF-8" standalone="no"?>
<svg width="48px" height="42px" viewBox="0 0 48 42" version="1.1" xmlns="http://www.w3.org/2000/svg" xmlns:xlink="http://www.w3.org/1999/xlink" xmlns:sketch="http://www.bohemiancoding.com/sketch/ns">
    <!-- Generator: Sketch 3.4.4 (17249) - http://www.bohemiancoding.com/sketch -->
    <title>googleplus</title>
    <desc>Created with Sketch.</desc>
    <defs></defs>
    <g id="Page-1" stroke="none" stroke-width="1" fill="none" fill-rule="evenodd" sketch:type="MSPage">
        <g id="sbt-blog-story" sketch:type="MSArtboardGroup" transform="translate(-1182.000000, -2834.000000)" fill="#315BA6">
            <g id="Share" sketch:type="MSLayerGroup" transform="translate(626.000000, 2752.000000)">
                <path d="M604,89.9921875 L596.007812,89.9921875 L596.007812,82 L593.992188,82 L593.992188,89.9921875 L586,89.9921875 L586,92.0078125 L593.992188,92.0078125 L593.992188,100 L596.007812,100 L596.007812,92.0078125 L604,92.0078125 L604,89.9921875 Z M576.835938,106.328125 C575.664062,105.554688 573.507812,103.609375 573.507812,102.4375 C573.507812,101.101562 573.882812,100.445312 575.898438,98.828125 C578.007812,97.2109375 579.4375,94.9375 579.4375,92.2890625 C579.4375,89.1015625 578.054688,86.0546875 575.382812,85.046875 L579.390625,85.046875 L582.226562,83.0078125 L569.664062,83.0078125 C563.992188,83.0078125 558.71875,87.2734375 558.71875,92.21875 C558.71875,97.28125 562.5625,101.335938 568.28125,101.335938 C568.65625,101.335938 569.054688,101.335938 569.453125,101.289062 C569.054688,101.992188 568.84375,102.835938 568.84375,103.65625 C568.84375,105.0625 569.546875,106.164062 570.507812,107.101562 L568.328125,107.101562 C561.390625,107.101562 556,111.554688 556,116.171875 C556,120.71875 561.882812,123.554688 568.84375,123.554688 C576.835938,123.554688 581.21875,119.054688 581.21875,114.507812 C581.21875,110.898438 580.117188,108.71875 576.835938,106.328125 L576.835938,106.328125 Z M570.109375,100.046875 C566.898438,99.953125 563.78125,96.4375 563.21875,92.171875 C562.65625,87.953125 564.835938,84.671875 568.046875,84.7890625 C571.328125,84.8828125 574.398438,88.28125 574.9375,92.546875 C575.5,96.7890625 573.34375,100.164062 570.109375,100.046875 L570.109375,100.046875 Z M568.84375,121.5625 C563.992188,121.5625 560.546875,118.492188 560.546875,114.835938 C560.546875,111.226562 564.835938,108.273438 569.664062,108.273438 C570.789062,108.34375 571.84375,108.507812 572.78125,108.789062 C575.382812,110.617188 577.28125,111.671875 577.84375,113.710938 C577.890625,114.15625 577.9375,114.554688 577.9375,115 C577.9375,118.65625 575.617188,121.5625 568.84375,121.5625 L568.84375,121.5625 Z" id="googleplus" sketch:type="MSShapeGroup"></path>
            </g>
        </g>
    </g>
</svg>