<?xml version="1.0" encoding="UTF-8" standalone="no"?>
<svg width="23px" height="16px" viewBox="0 0 23 16" version="1.1" xmlns="http://www.w3.org/2000/svg" xmlns:xlink="http://www.w3.org/1999/xlink" xmlns:sketch="http://www.bohemiancoding.com/sketch/ns">
    <!-- Generator: Sketch 3.4.4 (17249) - http://www.bohemiancoding.com/sketch -->
    <title>Line</title>
    <desc>Created with Sketch.</desc>
    <defs></defs>
    <g id="Page-1" stroke="none" stroke-width="1" fill="none" fill-rule="evenodd" sketch:type="MSPage">
        <g id="sbt-desktop-work-popup" sketch:type="MSArtboardGroup" transform="translate(-478.000000, -1760.000000)" fill="#315BA6">
            <g id="Group" sketch:type="MSLayerGroup" transform="translate(416.000000, 1346.000000)">
                <g id="Rectangle-157-Copy-+-Battery-Engineering-+-Oval-1-+-Line-Copy" transform="translate(0.000000, 404.000000)" sketch:type="MSShapeGroup">
                    <g id="Battery-Engineering-+-Oval-1-+-Line-Copy-2" transform="translate(61.000000, 4.000000)">
                        <g id="Oval-1-+-Line-Copy-5" transform="translate(15.232143, 14.232143) scale(-1, 1) rotate(-90.000000) translate(-15.232143, -14.232143) translate(2.732143, -0.767857)">
                            <path d="M12.252945,27.4908349 C12.252945,27.6704675 12.3968027,27.8160885 12.5742601,27.8160885 C12.7517175,27.8160885 12.8955752,27.6704675 12.8955752,27.4908349 L12.8955752,6.89144333 C12.8955752,6.71181075 12.7517175,6.56618978 12.5742601,6.56618978 C12.3968027,6.56618978 12.252945,6.71181075 12.252945,6.89144333 L12.252945,27.4908349 Z M19.6391712,22.149697 L13.5553468,28.5661904 C13.4324668,28.6957895 13.4366416,28.9016853 13.5646715,29.0260715 C13.6927013,29.1504576 13.8961039,29.1462317 14.0189839,29.0166325 L20.1028084,22.6001391 C20.2256884,22.47054 20.2215136,22.2646442 20.0934837,22.140258 C19.9654538,22.0158719 19.7620512,22.0200978 19.6391712,22.149697 Z M5.50934895,22.149697 L11.5931734,28.5661904 C11.7160534,28.6957895 11.7118786,28.9016853 11.5838487,29.0260715 C11.4558189,29.1504576 11.2524163,29.1462317 11.1295363,29.0166325 L5.0457118,22.6001391 C4.92283182,22.47054 4.92700662,22.2646442 5.05503649,22.140258 C5.18306635,22.0158719 5.38646897,22.0200978 5.50934895,22.149697 Z" id="Line"></path>
                        </g>
                    </g>
                </g>
            </g>
        </g>
    </g>
</svg>