<svg width="23" height="16" viewBox="0 0 23 16" xmlns="http://www.w3.org/2000/svg"><title>Line</title><path d="M1.741 8.48a.323.323 0 0 1-.325-.322c0-.178.146-.321.325-.321h20.6c.18 0 .325.143.325.32a.323.323 0 0 1-.325.322H1.74zm5.341-7.387L.666 7.177a.328.328 0 0 1-.46-.01.319.319 0 0 1 .01-.454L6.632.63a.328.328 0 0 1 .46.01.319.319 0 0 1-.01.454zm0 14.13L.666 9.139a.328.328 0 0 0-.46.01.319.319 0 0 0 .01.454l6.416 6.083c.13.123.335.12.46-.009a.319.319 0 0 0-.01-.454z" fill="#315BA6" fill-rule="evenodd"/></svg>