<svg width="36" height="36" viewBox="0 0 36 36" xmlns="http://www.w3.org/2000/svg"><title>linkedin</title><path d="M.756 12.744V36h7.488V12.744H.756zM20.25 22.5c0-3.006 1.916-4.5 4.166-4.5 2.25 0 4.078 1.494 4.078 5.256V36H36V22.5c0-6.75-3.744-10.494-9-10.494-3.006 0-5.256 1.705-6.75 3.955l-.246-3.217H12.62c0 .791.123 5.256.123 5.256v18h7.506V22.5zM4.465 9C7.242 9 9 7.172 9 4.87 8.965 2.548 7.242.755 4.535.755 1.793.756 0 2.549 0 4.869 0 7.172 1.758 9 4.412 9h.053z" fill="#315BA6" fill-rule="evenodd"/></svg>