<svg width="36" height="36" viewBox="0 0 36 36" xmlns="http://www.w3.org/2000/svg"><title>linkedin</title><path d="M.756 12.408v23.256h7.488V12.408H.756zm19.494 9.756c0-3.006 1.916-4.5 4.166-4.5 2.25 0 4.078 1.494 4.078 5.256v12.744H36v-13.5c0-6.75-3.744-10.494-9-10.494-3.006 0-5.256 1.705-6.75 3.955l-.246-3.217H12.62c0 .791.123 5.256.123 5.256v18h7.506v-13.5zM4.465 8.664C7.242 8.664 9 6.836 9 4.534 8.965 2.212 7.242.42 4.535.42 1.793.42 0 2.213 0 4.533c0 2.303 1.758 4.131 4.412 4.131h.053z" fill="#E9ECF0" fill-rule="evenodd"/></svg>