<?xml version="1.0" encoding="UTF-8" standalone="no"?>
<svg width="36px" height="36px" viewBox="0 0 36 36" version="1.1" xmlns="http://www.w3.org/2000/svg" xmlns:xlink="http://www.w3.org/1999/xlink" xmlns:sketch="http://www.bohemiancoding.com/sketch/ns">
    <!-- Generator: Sketch 3.4.4 (17249) - http://www.bohemiancoding.com/sketch -->
    <title>linkedin</title>
    <desc>Created with Sketch.</desc>
    <defs></defs>
    <g id="Page-1" stroke="none" stroke-width="1" fill="none" fill-rule="evenodd" sketch:type="MSPage">
        <g id="sbt-contact-desktop" sketch:type="MSArtboardGroup" transform="translate(-769.000000, -2217.000000)" fill="#E9ECF0">
            <g id="Footer" sketch:type="MSLayerGroup" transform="translate(-1.000000, 2146.664062)">
                <g id="Group-Copy" sketch:type="MSShapeGroup">
                    <g id="Group" transform="translate(619.000000, 68.000000)">
                        <path d="M151.755859,14.7441406 L151.755859,38 L159.244141,38 L159.244141,14.7441406 L151.755859,14.7441406 Z M171.25,24.5 C171.25,21.4941406 173.166016,20 175.416016,20 C177.666016,20 179.494141,21.4941406 179.494141,25.2558594 L179.494141,38 L187,38 L187,24.5 C187,17.75 183.255859,14.0058594 178,14.0058594 C174.994141,14.0058594 172.744141,15.7109375 171.25,17.9609375 L171.003906,14.7441406 L163.621094,14.7441406 C163.621094,15.5351562 163.744141,20 163.744141,20 L163.744141,38 L171.25,38 L171.25,24.5 Z M155.464844,11 C158.242188,11 160,9.171875 160,6.86914062 C159.964844,4.54882812 158.242188,2.75585938 155.535156,2.75585938 C152.792969,2.75585938 151,4.54882812 151,6.86914062 C151,9.171875 152.757812,11 155.412109,11 L155.464844,11 L155.464844,11 Z" id="linkedin"></path>
                    </g>
                </g>
            </g>
        </g>
    </g>
</svg>