<svg width="48" height="48" viewBox="0 0 48 48" xmlns="http://www.w3.org/2000/svg"><title>Artboard 1</title><path d="M1.008 16.992V48h9.984V16.992H1.008zM27 30c0-4.008 2.555-6 5.555-6 3 0 5.437 1.992 5.437 7.008V48H48V30c0-9-4.992-13.992-12-13.992-4.008 0-7.008 2.273-9 5.273l-.328-4.289h-9.844c0 1.055.164 7.008.164 7.008v24H27V30zM5.953 12C9.656 12 12 9.562 12 6.492c-.047-3.094-2.344-5.484-5.953-5.484C2.39 1.008 0 3.398 0 6.492 0 9.562 2.344 12 5.883 12h.07z" fill="#669DC9" fill-rule="evenodd"/></svg>