<?xml version="1.0" encoding="UTF-8" standalone="no"?>
<svg width="887px" height="1355px" viewBox="0 0 887 1355" version="1.1" xmlns="http://www.w3.org/2000/svg" xmlns:xlink="http://www.w3.org/1999/xlink" xmlns:sketch="http://www.bohemiancoding.com/sketch/ns">
    <!-- Generator: Sketch 3.5.2 (25235) - http://www.bohemiancoding.com/sketch -->
    <title>Rectangle 34 + Mask</title>
    <desc>Created with Sketch.</desc>
    <defs>
        <rect id="path-1" x="0" y="0" width="1600" height="1366"></rect>
        <linearGradient x1="48.8516062%" y1="36.9446344%" x2="48.8516062%" y2="48.9805408%" id="linearGradient-3">
            <stop stop-color="#315BA6" stop-opacity="0.5" offset="0%"></stop>
            <stop stop-color="#315BA6" stop-opacity="0" offset="100%"></stop>
        </linearGradient>
    </defs>
    <g id="Page-1" stroke="none" stroke-width="1" fill="none" fill-rule="evenodd" sketch:type="MSPage">
        <g id="sbt-desktop-home-lineart" sketch:type="MSArtboardGroup" transform="translate(-713.000000, -816.000000)">
            <g id="Content-1" sketch:type="MSLayerGroup" transform="translate(60.000000, 816.000000)">
                <g id="Rectangle-34-+-Mask">
                    <mask id="mask-2" sketch:name="Mask" fill="white">
                        <use xlink:href="#path-1"></use>
                    </mask>
                    <use id="Mask" sketch:type="MSShapeGroup" xlink:href="#path-1"></use>
                    <path d="M1443.02681,1232.39472 L1270.02937,423.065815 L2130.59227,-928.774932 L2139.46624,-946.562826 L2139.46624,-1004.37914 L2143.91053,-1022.15708 L2148.34039,-1044.39618 L2157.21436,-1062.18407 L2170.51819,-1079.97197 L2174.96231,-1093.31005 L2183.82202,-1106.65235 L2197.14028,-1115.54915 L2206,-1133.33704 L2197.14028,-1151.12068 L2161.64422,-1168.90851 L2117.28844,-1177.79963 L2099.54049,-1208.9313 L2081.79237,-1244.50706 L2068.48854,-1302.31199 L2059.62882,-1377.91049 L2041.88088,-1417.93323 L2015.25879,-1431.27031 L2015.25879,-1453.5043 L2041.88088,-1462.40111 L2055.18471,-1480.1894 L2055.18471,-1497.97773 L2037.43676,-1506.8691 L2001.95496,-1537.99999 L1984.22109,-1537.99999 L1984.22109,-1506.8691 L1407.545,-1440.1617 L1407.545,-1409.04187 L1416.41471,-1382.35606 L1403.10514,-1266.7405 L1376.49174,-1204.48434 L1341.00428,-1173.35412 L1341.00428,-1160.01178 L1336.57008,-1106.6524 L1305.51683,-1088.8645 L1265.59516,-1044.39622 L1243.41727,-1035.49943 L1243.41727,-1013.26455 L1199.05441,-982.140049 L1119.20973,-910.987081 L1101.466,-893.197752 L1065.97854,-879.861146 L950.642193,-773.13665 L937.338319,-759.794307 L897.4167,-737.560862 L866.363401,-737.560862 L844.184098,-724.218518 L830.875964,-701.989421 L817.566375,-670.859139 L826.44037,-644.178797 L861.927828,-595.259361 L853.053856,-555.243629 L844.1841,-515.220944 L826.44037,-475.19252 L751.025597,-377.366079 L733.281867,-355.131419 L733.281867,-301.76778 L715.538137,-275.093002 L697.800124,-261.750572 L680.056405,-243.961329 L680.056405,-195.043109 L671.180976,-172.808448 L657.87282,-141.683818 L653.437247,-123.895967 L653.437247,-106.112377 L657.87282,-83.8776293 L666.746804,-74.9750537 L719.978014,-66.0868231 L746.591455,-48.2961038 L711.109713,-12.7287496 L684.490554,31.7550909 L666.746803,71.7665618 L657.872819,111.792204 L657.872819,169.594221 L649.003084,209.619776 L649.003084,222.96638 L657.872819,240.757099 L680.056404,227.410495 L706.668423,209.619776 L715.538136,191.829057 L728.853442,187.384941 L751.025594,187.384941 L751.025594,249.645505 L733.281864,267.436224 L724.412151,294.115174 L724.412151,316.350009 L751.025593,311.891635 L777.644774,294.115174 L777.644774,325.238241 L768.775017,351.917191 L737.721741,369.70791 L715.538135,383.040256 L684.490531,391.942745 L671.180973,391.942745 L671.180973,374.152025 L675.616546,360.805421 L675.616546,343.02896 L680.056401,316.35001 L671.180971,311.891637 L653.437242,294.115176 L635.693512,294.115176 L617.949782,307.447521 L600.206465,316.35001 L600.206465,347.473077 L582.4626,374.152027 L573.593583,378.596142 L564.718871,396.386861 L564.718871,445.300821 L573.593583,445.300821 L591.337313,454.20331 L595.771903,480.88226 L573.593583,520.907815 L551.409591,543.128393 L546.980711,560.919112 L546.980711,587.598062 L533.665864,632.067906 L520.36227,667.649345 L507.052978,698.772412 L507.052978,761.032802 L524.796705,814.390876 L529.231284,863.304662 L538.105998,881.095382 L529.231284,916.67682 L502.618383,956.688291 L493.743827,974.479011 L493.743827,1001.15796 L476,1027.83691 L476,1072.30658 L493.743827,1147.91375 L507.052976,1179.03682 L515.927689,1196.82753 L524.796705,1196.82753 L533.665864,1179.03682 L538.105999,1156.80198 L542.540576,1147.91375 L569.15902,1147.91375 L578.028032,1174.5927 L595.771903,1254.62955 L617.949783,1330.22246 L635.693513,1410.27357 L640.129086,1436.95252 L1443.02681,1232.39472 Z" id="Mask" fill="url(#linearGradient-3)" sketch:type="MSShapeGroup" mask="url(#mask-2)">
                        <g transform="translate(1341.000000, -50.523737) scale(1, -1) translate(-1341.000000, 50.523737) "></g>
                    </path>
                    <path d="M1243.41727,921.133218 L1243.50781,921.007812 L1259.96094,916.039062 L1269.44531,881.34375 L1305.55469,895.210938 L1307.03906,868.960938 L1328.32031,846.648438 L1373.32812,839.234375 L1437.10156,853.101562 L1462.32031,895.140625 L1488.04688,938.21875 L1503.39844,964.984375 L1556.33594,964.984375 L1575.17188,982.335938 L1620.69531,982.335938 L1682.02344,982.335938 L1727.54688,957.117188 L1822.53906,934.875 L1789.39062,1044.625 L1696.92188,1062.42188 L1611.35156,1094.08594 L1581.17188,1102.98438 L1543.64062,1110.91406 L1596.58594,1152.96094 L1601.03125,1183.65625 L1568.85938,1192.55469 L1512.88281,1181.65625 L1477.73438,1206.42188 L1468.32031,1235.11719 L1480.70312,1277.16406 L1468.32031,1310.30469 L1443.03906,1320.24219 L1410.92188,1323.71875 L1407.545,1322.89529 L1407.545,1307.99439 L1416.41471,1281.30858 L1403.10514,1165.69303 L1376.49174,1103.43686 L1341.00428,1072.30665 L1341.00428,1058.9643 L1336.57008,1005.60492 L1305.51683,987.817027 L1265.59516,943.348748 L1243.41727,934.451954 L1243.41727,921.133218 Z" id="Path-6114" fill="#315BA6" sketch:type="MSShapeGroup" mask="url(#mask-2)"></path>
                    <path d="M1231.78248,904.054234 L1245.38672,872.972656 L1241.41797,852.433594 L1227.07031,842.792969 L1219.65625,820.546875 L1230.55469,818.804688 L1226.58594,807.421875 L1232.51953,788.367188 L1257.25,797.78125 L1259.95703,781.210938 L1272.56641,752.03125 L1270.33984,726.558594 L1239.41797,702.796875 L1223.58594,694.636719 L1213.17188,698.605469 L1188.92578,687.222656 L1194.59766,669.425781 L1179.02734,648.886719 L1183.73438,628.828125 L1177.28516,610.257813 L1211.91406,600.582031 L1235.16016,583.527344 L1263.59766,598.875 L1298.96875,630.28125 L1336.5625,697.761719 L1362.55078,718.335938 L1363.55078,745.546875 L1393.98828,762.863281 L1463.50391,762.863281 L1520.08984,752.03125 L1549.52734,750.546875 L1555.71875,710.535156 L1523.3125,693.445313 L1552.49219,673.425781 L1548.04297,655.59375 L1535.92188,647.917969 L1520.79688,653.109375 L1503.22266,689.222656 L1493.80859,689.222656 L1497.55078,656.335938 L1507.48438,644.46875 L1499.80859,623.964844 L1509.44922,610.359375 L1537.66016,606.875 L1566.58203,608.359375 L1550.04297,566.796875 L1497.61719,553.449219 L1481.07812,540.808594 L1463.50391,540.066406 L1460.02344,517.046875 L1494.16797,524.71875 L1580.1875,562.539063 L1574.25781,465.84375 L1516.15625,417.867188 L1453.34766,376.5625 L1425.65234,364.441406 L1425.65234,378.304688 L1429.10156,411.933594 L1397.92188,397.585938 L1357.62109,397.585938 L1322.02344,394.878906 L1297.8125,387.203125 L1262.18359,380.53125 L1221.84766,378.304688 L1200.78906,377.082031 L1182.50781,364.441406 L1161.96875,359.734375 L1150.10547,367.40625 L1125.15234,351.832031 L1125.375,341.417969 L1072.46484,336.710938 L1061.11719,340.710938 L1032.16406,336.261719 L1024.26562,315.980469 L987.667969,293.699219 L968.128906,286.285156 L958.972656,271.417969 L958.230469,253.105469 L941.660156,253.105469 L932.726562,242.429688 L906.996094,243.914062 L893.390625,248.140625 L880.492188,239.464844 L874.558594,227.339844 L872.558594,210.25 L861.917969,204.800781 L821.617188,197.609375 L814.90625,196.351562 L805.234375,204.285156 L790.628906,202.800781 L789.144531,215.667969 L781.4375,215.667969 L765.089844,212.183594 L761.605469,229.757812 L752.191406,226.015625 L736.582031,228.980469 L733.281867,232.075733 L733.281867,254.083944 L751.025597,276.318605 L826.44037,374.145046 L844.1841,414.17347 L853.053856,454.196155 L861.927828,494.211886 L826.44037,543.131323 L817.566375,569.811664 L830.875964,600.941947 L844.184098,623.171044 L866.363401,636.513388 L897.4167,636.513388 L937.338319,658.746832 L950.642193,672.089176 L1065.97854,778.813671 L1101.466,792.150277 L1119.20973,809.939606 L1199.05441,881.092574 L1231.78248,904.054234 Z" id="Path-6112" fill="#315BA6" sketch:type="MSShapeGroup" mask="url(#mask-2)"></path>
                    <path d="M990.448,518.544 C990.448,518.784 990.64,519 990.904,519 L999.208,519 C999.472,519 999.664,518.784 999.664,518.544 L999.664,517.848 C999.664,517.608 999.472,517.392 999.208,517.392 L992.296,517.392 L992.296,502.656 C992.296,502.416 992.08,502.2 991.84,502.2 L990.904,502.2 C990.64,502.2 990.448,502.416 990.448,502.656 L990.448,518.544 Z M1005.43467,510.624 C1005.43467,515.424 1009.25067,519.24 1014.05067,519.24 C1018.85067,519.24 1022.69067,515.424 1022.69067,510.624 C1022.69067,505.824 1018.85067,501.96 1014.05067,501.96 C1009.25067,501.96 1005.43467,505.824 1005.43467,510.624 L1005.43467,510.624 Z M1007.11467,510.624 C1007.11467,506.808 1010.23467,503.64 1014.05067,503.64 C1017.86667,503.64 1021.01067,506.808 1021.01067,510.624 C1021.01067,514.44 1017.86667,517.56 1014.05067,517.56 C1010.23467,517.56 1007.11467,514.44 1007.11467,510.624 L1007.11467,510.624 Z M1030.09333,517.296 C1030.40533,517.584 1032.32533,519.24 1035.15733,519.24 C1037.96533,519.24 1040.34133,517.416 1040.34133,514.92 C1040.34133,512.136 1038.25333,510.912 1035.01333,509.592 C1032.99733,508.752 1031.77333,507.816 1031.77333,506.208 C1031.77333,505.2 1032.54133,503.568 1035.08533,503.568 C1036.54933,503.568 1038.06133,504.576 1038.22933,504.672 C1038.61333,504.888 1038.85333,504.792 1039.06933,504.456 C1039.16533,504.312 1039.26133,504.144 1039.35733,504 C1039.64533,503.544 1039.35733,503.256 1039.21333,503.184 C1039.21333,503.184 1037.46133,501.96 1035.10933,501.96 C1031.29333,501.96 1029.99733,504.6 1029.99733,506.232 C1029.99733,508.968 1031.58133,510.048 1034.22133,511.2 C1036.98133,512.352 1038.42133,513.336 1038.42133,514.992 C1038.42133,516.408 1037.14933,517.632 1035.20533,517.632 C1033.06933,517.632 1031.31733,515.952 1031.14933,515.808 C1030.81333,515.52 1030.54933,515.712 1030.30933,516.024 C1030.18933,516.168 1030.06933,516.336 1029.94933,516.48 C1029.66133,516.936 1029.90133,517.128 1030.09333,517.296 L1030.09333,517.296 Z M1056.58667,519 L1057.54667,519 C1057.76267,519 1057.90667,518.856 1057.95467,518.736 L1059.70667,514.776 L1068.22667,514.776 L1070.00267,518.736 C1070.05067,518.856 1070.19467,519 1070.41067,519 L1071.37067,519 C1071.73067,519 1071.92267,518.688 1071.77867,518.376 L1064.53067,502.224 C1064.45867,502.08 1064.33867,501.96 1064.12267,501.96 L1063.88267,501.96 C1063.66667,501.96 1063.54667,502.08 1063.47467,502.224 L1056.17867,518.376 C1056.03467,518.688 1056.22667,519 1056.58667,519 L1056.58667,519 Z M1060.37867,513.288 L1063.88267,505.416 L1064.07467,505.416 C1065.25067,508.032 1066.40267,510.672 1067.57867,513.288 L1060.37867,513.288 Z M1079.06133,518.544 C1079.06133,518.784 1079.27733,519 1079.51733,519 L1080.35733,519 C1080.62133,519 1080.81333,518.784 1080.81333,518.544 L1080.81333,505.488 L1080.83733,505.488 L1091.85333,519.24 L1092.28533,519.24 C1092.52533,519.24 1092.74133,519.048 1092.74133,518.808 L1092.74133,502.656 C1092.74133,502.416 1092.52533,502.2 1092.28533,502.2 L1091.44533,502.2 C1091.18133,502.2 1090.98933,502.416 1090.98933,502.656 L1090.98933,515.448 L1090.94133,515.448 L1080.11733,501.96 L1079.51733,501.96 C1079.27733,501.96 1079.06133,502.152 1079.06133,502.392 L1079.06133,518.544 Z M1101.08,510.624 C1101.08,515.424 1104.944,519.24 1109.744,519.24 C1113.224,519.24 1115.672,517.656 1115.672,517.656 C1115.768,517.584 1115.864,517.392 1115.864,517.272 L1115.864,511.776 C1115.864,511.536 1115.672,511.32 1115.432,511.32 L1111.28,511.32 C1111.016,511.32 1110.824,511.512 1110.824,511.776 L1110.824,512.664 C1110.824,512.904 1111.016,513.096 1111.28,513.096 L1114.04,513.096 L1114.04,516.456 C1114.04,516.456 1112.36,517.464 1109.72,517.464 C1105.928,517.464 1103.048,514.224 1103.048,510.528 C1103.048,506.808 1105.928,503.64 1109.72,503.64 C1111.328,503.64 1113.056,504.432 1114.28,505.512 C1114.544,505.752 1114.688,505.776 1114.904,505.536 C1115.096,505.32 1115.36,505.08 1115.576,504.864 C1115.768,504.672 1115.744,504.384 1115.552,504.192 C1113.92,502.8 1112.168,501.96 1109.744,501.96 C1104.944,501.96 1101.08,505.824 1101.08,510.624 L1101.08,510.624 Z M1124.53867,518.544 C1124.53867,518.784 1124.73067,519 1124.99467,519 L1134.45067,519 C1134.71467,519 1134.90667,518.784 1134.90667,518.544 L1134.90667,517.848 C1134.90667,517.608 1134.71467,517.392 1134.45067,517.392 L1126.38667,517.392 L1126.38667,511.272 L1133.27467,511.272 C1133.51467,511.272 1133.73067,511.08 1133.73067,510.816 L1133.73067,510.12 C1133.73067,509.88 1133.51467,509.664 1133.27467,509.664 L1126.38667,509.664 L1126.38667,503.808 L1134.45067,503.808 C1134.71467,503.808 1134.90667,503.592 1134.90667,503.352 L1134.90667,502.656 C1134.90667,502.416 1134.71467,502.2 1134.45067,502.2 L1124.99467,502.2 C1124.73067,502.2 1124.53867,502.416 1124.53867,502.656 L1124.53867,518.544 Z M1143.41333,518.544 C1143.41333,518.784 1143.60533,519 1143.86933,519 L1152.17333,519 C1152.43733,519 1152.62933,518.784 1152.62933,518.544 L1152.62933,517.848 C1152.62933,517.608 1152.43733,517.392 1152.17333,517.392 L1145.26133,517.392 L1145.26133,502.656 C1145.26133,502.416 1145.04533,502.2 1144.80533,502.2 L1143.86933,502.2 C1143.60533,502.2 1143.41333,502.416 1143.41333,502.656 L1143.41333,518.544 Z M1159.864,518.544 C1159.864,518.784 1160.056,519 1160.32,519 L1169.776,519 C1170.04,519 1170.232,518.784 1170.232,518.544 L1170.232,517.848 C1170.232,517.608 1170.04,517.392 1169.776,517.392 L1161.712,517.392 L1161.712,511.272 L1168.6,511.272 C1168.84,511.272 1169.056,511.08 1169.056,510.816 L1169.056,510.12 C1169.056,509.88 1168.84,509.664 1168.6,509.664 L1161.712,509.664 L1161.712,503.808 L1169.776,503.808 C1170.04,503.808 1170.232,503.592 1170.232,503.352 L1170.232,502.656 C1170.232,502.416 1170.04,502.2 1169.776,502.2 L1160.32,502.2 C1160.056,502.2 1159.864,502.416 1159.864,502.656 L1159.864,518.544 Z M1177.80267,517.296 C1178.11467,517.584 1180.03467,519.24 1182.86667,519.24 C1185.67467,519.24 1188.05067,517.416 1188.05067,514.92 C1188.05067,512.136 1185.96267,510.912 1182.72267,509.592 C1180.70667,508.752 1179.48267,507.816 1179.48267,506.208 C1179.48267,505.2 1180.25067,503.568 1182.79467,503.568 C1184.25867,503.568 1185.77067,504.576 1185.93867,504.672 C1186.32267,504.888 1186.56267,504.792 1186.77867,504.456 C1186.87467,504.312 1186.97067,504.144 1187.06667,504 C1187.35467,503.544 1187.06667,503.256 1186.92267,503.184 C1186.92267,503.184 1185.17067,501.96 1182.81867,501.96 C1179.00267,501.96 1177.70667,504.6 1177.70667,506.232 C1177.70667,508.968 1179.29067,510.048 1181.93067,511.2 C1184.69067,512.352 1186.13067,513.336 1186.13067,514.992 C1186.13067,516.408 1184.85867,517.632 1182.91467,517.632 C1180.77867,517.632 1179.02667,515.952 1178.85867,515.808 C1178.52267,515.52 1178.25867,515.712 1178.01867,516.024 C1177.89867,516.168 1177.77867,516.336 1177.65867,516.48 C1177.37067,516.936 1177.61067,517.128 1177.80267,517.296 L1177.80267,517.296 Z" id="LOS-ANGELES" fill="#669DC9" sketch:type="MSShapeGroup" mask="url(#mask-2)"></path>
                    <path d="M1367.512,1033.296 C1367.824,1033.584 1369.744,1035.24 1372.576,1035.24 C1375.384,1035.24 1377.76,1033.416 1377.76,1030.92 C1377.76,1028.136 1375.672,1026.912 1372.432,1025.592 C1370.416,1024.752 1369.192,1023.816 1369.192,1022.208 C1369.192,1021.2 1369.96,1019.568 1372.504,1019.568 C1373.968,1019.568 1375.48,1020.576 1375.648,1020.672 C1376.032,1020.888 1376.272,1020.792 1376.488,1020.456 C1376.584,1020.312 1376.68,1020.144 1376.776,1020 C1377.064,1019.544 1376.776,1019.256 1376.632,1019.184 C1376.632,1019.184 1374.88,1017.96 1372.528,1017.96 C1368.712,1017.96 1367.416,1020.6 1367.416,1022.232 C1367.416,1024.968 1369,1026.048 1371.64,1027.2 C1374.4,1028.352 1375.84,1029.336 1375.84,1030.992 C1375.84,1032.408 1374.568,1033.632 1372.624,1033.632 C1370.488,1033.632 1368.736,1031.952 1368.568,1031.808 C1368.232,1031.52 1367.968,1031.712 1367.728,1032.024 C1367.608,1032.168 1367.488,1032.336 1367.368,1032.48 C1367.08,1032.936 1367.32,1033.128 1367.512,1033.296 L1367.512,1033.296 Z M1384.01067,1035 L1384.97067,1035 C1385.18667,1035 1385.33067,1034.856 1385.37867,1034.736 L1387.13067,1030.776 L1395.65067,1030.776 L1397.42667,1034.736 C1397.47467,1034.856 1397.61867,1035 1397.83467,1035 L1398.79467,1035 C1399.15467,1035 1399.34667,1034.688 1399.20267,1034.376 L1391.95467,1018.224 C1391.88267,1018.08 1391.76267,1017.96 1391.54667,1017.96 L1391.30667,1017.96 C1391.09067,1017.96 1390.97067,1018.08 1390.89867,1018.224 L1383.60267,1034.376 C1383.45867,1034.688 1383.65067,1035 1384.01067,1035 L1384.01067,1035 Z M1387.80267,1029.288 L1391.30667,1021.416 L1391.49867,1021.416 C1392.67467,1024.032 1393.82667,1026.672 1395.00267,1029.288 L1387.80267,1029.288 Z M1406.48533,1034.544 C1406.48533,1034.784 1406.70133,1035 1406.94133,1035 L1407.78133,1035 C1408.04533,1035 1408.23733,1034.784 1408.23733,1034.544 L1408.23733,1021.488 L1408.26133,1021.488 L1419.27733,1035.24 L1419.70933,1035.24 C1419.94933,1035.24 1420.16533,1035.048 1420.16533,1034.808 L1420.16533,1018.656 C1420.16533,1018.416 1419.94933,1018.2 1419.70933,1018.2 L1418.86933,1018.2 C1418.60533,1018.2 1418.41333,1018.416 1418.41333,1018.656 L1418.41333,1031.448 L1418.36533,1031.448 L1407.54133,1017.96 L1406.94133,1017.96 C1406.70133,1017.96 1406.48533,1018.152 1406.48533,1018.392 L1406.48533,1034.544 Z M1439.72267,1034.544 C1439.72267,1034.784 1439.91467,1035 1440.15467,1035 L1445.53067,1035 C1450.16267,1035 1453.95467,1031.232 1453.95467,1026.576 C1453.95467,1021.968 1450.16267,1018.2 1445.53067,1018.2 L1440.15467,1018.2 C1439.91467,1018.2 1439.72267,1018.416 1439.72267,1018.656 L1439.72267,1034.544 Z M1441.54667,1033.344 L1441.54667,1019.832 L1445.14667,1019.832 C1449.08267,1019.832 1451.93867,1022.64 1451.93867,1026.576 C1451.93867,1030.536 1449.08267,1033.344 1445.14667,1033.344 L1441.54667,1033.344 Z M1462.31733,1034.544 C1462.31733,1034.784 1462.53333,1035 1462.77333,1035 L1463.73333,1035 C1463.97333,1035 1464.18933,1034.784 1464.18933,1034.544 L1464.18933,1018.656 C1464.18933,1018.416 1463.97333,1018.2 1463.73333,1018.2 L1462.77333,1018.2 C1462.53333,1018.2 1462.31733,1018.416 1462.31733,1018.656 L1462.31733,1034.544 Z M1473.752,1034.544 C1473.752,1034.784 1473.944,1035 1474.208,1035 L1483.664,1035 C1483.928,1035 1484.12,1034.784 1484.12,1034.544 L1484.12,1033.848 C1484.12,1033.608 1483.928,1033.392 1483.664,1033.392 L1475.6,1033.392 L1475.6,1027.272 L1482.488,1027.272 C1482.728,1027.272 1482.944,1027.08 1482.944,1026.816 L1482.944,1026.12 C1482.944,1025.88 1482.728,1025.664 1482.488,1025.664 L1475.6,1025.664 L1475.6,1019.808 L1483.664,1019.808 C1483.928,1019.808 1484.12,1019.592 1484.12,1019.352 L1484.12,1018.656 C1484.12,1018.416 1483.928,1018.2 1483.664,1018.2 L1474.208,1018.2 C1473.944,1018.2 1473.752,1018.416 1473.752,1018.656 L1473.752,1034.544 Z M1491.33067,1026.624 C1491.33067,1031.424 1495.19467,1035.24 1499.99467,1035.24 C1503.47467,1035.24 1505.92267,1033.656 1505.92267,1033.656 C1506.01867,1033.584 1506.11467,1033.392 1506.11467,1033.272 L1506.11467,1027.776 C1506.11467,1027.536 1505.92267,1027.32 1505.68267,1027.32 L1501.53067,1027.32 C1501.26667,1027.32 1501.07467,1027.512 1501.07467,1027.776 L1501.07467,1028.664 C1501.07467,1028.904 1501.26667,1029.096 1501.53067,1029.096 L1504.29067,1029.096 L1504.29067,1032.456 C1504.29067,1032.456 1502.61067,1033.464 1499.97067,1033.464 C1496.17867,1033.464 1493.29867,1030.224 1493.29867,1026.528 C1493.29867,1022.808 1496.17867,1019.64 1499.97067,1019.64 C1501.57867,1019.64 1503.30667,1020.432 1504.53067,1021.512 C1504.79467,1021.752 1504.93867,1021.776 1505.15467,1021.536 C1505.34667,1021.32 1505.61067,1021.08 1505.82667,1020.864 C1506.01867,1020.672 1505.99467,1020.384 1505.80267,1020.192 C1504.17067,1018.8 1502.41867,1017.96 1499.99467,1017.96 C1495.19467,1017.96 1491.33067,1021.824 1491.33067,1026.624 L1491.33067,1026.624 Z M1513.56533,1026.624 C1513.56533,1031.424 1517.38133,1035.24 1522.18133,1035.24 C1526.98133,1035.24 1530.82133,1031.424 1530.82133,1026.624 C1530.82133,1021.824 1526.98133,1017.96 1522.18133,1017.96 C1517.38133,1017.96 1513.56533,1021.824 1513.56533,1026.624 L1513.56533,1026.624 Z M1515.24533,1026.624 C1515.24533,1022.808 1518.36533,1019.64 1522.18133,1019.64 C1525.99733,1019.64 1529.14133,1022.808 1529.14133,1026.624 C1529.14133,1030.44 1525.99733,1033.56 1522.18133,1033.56 C1518.36533,1033.56 1515.24533,1030.44 1515.24533,1026.624 L1515.24533,1026.624 Z" id="SAN-DIEGO" fill="#669DC9" sketch:type="MSShapeGroup" mask="url(#mask-2)"></path>
                </g>
            </g>
        </g>
    </g>
</svg>