<svg width="887" height="1355" viewBox="0 0 887 1355" xmlns="http://www.w3.org/2000/svg" xmlns:xlink="http://www.w3.org/1999/xlink"><title>Rectangle 34 + Mask</title><defs><path id="a" d="M0 0h1600v1366H0z"/><linearGradient x1="48.852%" y1="36.945%" x2="48.852%" y2="48.981%" id="b"><stop stop-color="#315BA6" stop-opacity=".5" offset="0%"/><stop stop-color="#315BA6" stop-opacity="0" offset="100%"/></linearGradient></defs><g transform="translate(-653)" fill="none" fill-rule="evenodd"><mask id="c" fill="#fff"><use xlink:href="#a"/></mask><use xlink:href="#a"/><path d="M1443.027 1232.395l-172.998-809.33 860.563-1351.84 8.874-17.788v-57.816l4.445-17.778 4.43-22.24 8.873-17.787 13.304-17.788 4.444-13.338 8.86-13.342 13.318-8.897 8.86-17.788-8.86-17.784-35.496-17.788-44.356-8.89-17.748-31.132-17.748-35.576-13.303-57.805-8.86-75.598-17.748-40.023-26.622-13.337v-22.234l26.622-8.897 13.304-17.788v-17.789l-17.748-8.891-35.482-31.131h-17.734v31.13l-576.676 66.708v31.12l8.87 26.686-13.31 115.615-26.613 62.257-35.488 31.13v13.342l-4.434 53.36-31.053 17.788-39.922 44.468-22.178 8.897v22.234l-44.363 31.125-79.844 71.153-17.744 17.79-35.487 13.336-115.337 106.724-13.304 13.343-39.921 22.233h-31.054l-22.179 13.342-13.308 22.23-13.31 31.13 8.874 26.68 35.488 48.92-8.874 40.015-8.87 40.023-17.744 40.028-75.414 97.827-17.744 22.235v53.363l-17.744 26.675-17.738 13.342-17.744 17.79v48.918l-8.875 22.235-13.308 31.124-4.436 17.788v17.784l4.436 22.234 8.874 8.903 53.231 8.888 26.613 17.79-35.481 35.568-26.62 44.484-17.743 40.012-8.874 40.025v57.802l-8.87 40.026v13.346l8.87 17.791 22.183-13.347 26.612-17.79 8.87-17.79 13.315-4.445h22.173v62.26l-17.744 17.791-8.87 26.68v22.234l26.614-4.458 26.619-17.777v31.123l-8.87 26.68-31.053 17.79-22.184 13.332-31.047 8.903h-13.31v-17.791l4.436-13.347V343.03l4.44-26.679-8.876-4.458-17.744-17.777h-17.743l-17.744 13.333-17.744 8.902v31.123l-17.743 26.679-8.87 4.444-8.874 17.79v48.915h8.875l17.743 8.902 4.435 26.68-22.178 40.025-22.184 22.22-4.43 17.791v26.68l-13.314 44.469-13.304 35.581-13.309 31.123v62.26l17.744 53.359 4.434 48.914 8.875 17.79-8.875 35.582-26.613 40.011-8.874 17.791v26.679L476 1027.837v44.47l17.744 75.607 13.309 31.123 8.875 17.79h8.869l8.869-17.79 4.44-22.235 4.435-8.888h26.618l8.869 26.679 17.744 80.037 22.178 75.592 17.744 80.052 4.435 26.679 802.898-204.558z" fill="url(#b)" mask="url(#c)"/><path d="M1243.417 921.133l.09-.125 16.454-4.969 9.484-34.695 36.11 13.867 1.484-26.25 21.281-22.313 45.008-7.414 63.774 13.868 25.218 42.039 25.727 43.078 15.351 26.765h52.938l18.836 17.352h106.851l45.524-25.219 94.992-22.242-33.148 109.75-92.47 17.797-85.57 31.664-30.18 8.898-37.53 7.93 52.945 42.047 4.445 30.695-32.172 8.899-55.976-10.899-35.149 24.766-9.414 28.695 12.383 42.047-12.383 33.14-25.28 9.938-32.118 3.477-3.377-.824v-14.9l8.87-26.686-13.31-115.616-26.613-62.256-35.488-31.13v-13.343l-4.434-53.36-31.053-17.787-39.922-44.468-22.178-8.897v-13.319z" fill="#315BA6" mask="url(#c)"/><path d="M1231.782 904.054l13.605-31.081-3.969-20.54-14.348-9.64-7.414-22.246 10.899-1.742-3.97-11.383 5.935-19.055 24.73 9.414 2.707-16.57 12.61-29.18-2.227-25.472-30.922-23.762-15.832-8.16-10.414 3.968-24.246-11.382 5.672-17.797-15.57-20.54 4.706-20.058-6.449-18.57 34.63-9.676 23.245-17.055 28.438 15.348 35.37 31.406 37.594 67.48 25.989 20.575 1 27.21 30.437 17.317h69.516l56.586-10.832 29.437-1.484 6.192-40.012-32.407-17.09 29.18-20.02-4.449-17.831-12.121-7.676-15.125 5.191-17.574 36.114h-9.414l3.742-32.887 9.933-11.867-7.675-20.504 9.64-13.606 28.211-3.484 28.922 1.484-16.539-41.562-52.426-13.348-16.539-12.64-17.574-.743-3.48-23.02 34.144 7.673 86.02 37.82-5.93-96.695-58.102-47.977-62.808-41.305-27.696-12.12v13.863l3.45 33.629-31.18-14.348h-40.3l-35.599-2.707-24.21-7.676-35.63-6.672-40.335-2.226-21.059-1.223-18.281-12.64-20.54-4.708-11.863 7.672-24.953-15.574.223-10.414-52.91-4.707-11.348 4-28.953-4.45-7.898-20.28-36.598-22.282-19.54-7.414-9.155-14.867-.743-18.313h-16.57l-8.933-10.675-25.73 1.484-13.606 4.227-12.899-8.676-5.933-12.125-2-17.09-10.641-5.45-40.3-7.19-6.712-1.258-9.672 7.933-14.605-1.484-1.484 12.867h-7.707l-16.348-3.484-3.485 17.574-9.414-3.742-15.609 2.964-3.3 3.096v22.008l17.744 22.235 75.414 97.826 17.744 40.028 8.87 40.023 8.874 40.016-35.488 48.92-8.874 26.68 13.31 31.13 13.308 22.229 22.18 13.342h31.053l39.921 22.234 13.304 13.342 115.337 106.725 35.487 13.336 17.744 17.79 79.844 71.153 32.728 22.961z" fill="#315BA6" mask="url(#c)"/><path d="M990.448 518.544c0 .24.192.456.456.456h8.304a.456.456 0 0 0 .456-.456v-.696a.456.456 0 0 0-.456-.456h-6.912v-14.736a.472.472 0 0 0-.456-.456h-.936a.456.456 0 0 0-.456.456v15.888zm14.987-7.92c0 4.8 3.816 8.616 8.616 8.616s8.64-3.816 8.64-8.616-3.84-8.664-8.64-8.664c-4.8 0-8.616 3.864-8.616 8.664zm1.68 0c0-3.816 3.12-6.984 6.936-6.984s6.96 3.168 6.96 6.984-3.144 6.936-6.96 6.936-6.936-3.12-6.936-6.936zm22.978 6.672c.312.288 2.232 1.944 5.064 1.944 2.808 0 5.184-1.824 5.184-4.32 0-2.784-2.088-4.008-5.328-5.328-2.016-.84-3.24-1.776-3.24-3.384 0-1.008.768-2.64 3.312-2.64 1.464 0 2.976 1.008 3.144 1.104.384.216.624.12.84-.216.096-.144.192-.312.288-.456.288-.456 0-.744-.144-.816 0 0-1.752-1.224-4.104-1.224-3.816 0-5.112 2.64-5.112 4.272 0 2.736 1.584 3.816 4.224 4.968 2.76 1.152 4.2 2.136 4.2 3.792 0 1.416-1.272 2.64-3.216 2.64-2.136 0-3.888-1.68-4.056-1.824-.336-.288-.6-.096-.84.216-.12.144-.24.312-.36.456-.288.456-.048.648.144.816zm26.494 1.704h.96c.216 0 .36-.144.408-.264l1.752-3.96h8.52l1.776 3.96c.048.12.192.264.408.264h.96c.36 0 .552-.312.408-.624l-7.248-16.152c-.072-.144-.192-.264-.408-.264h-.24c-.216 0-.336.12-.408.264l-7.296 16.152c-.144.312.048.624.408.624zm3.792-5.712l3.504-7.872h.192c1.176 2.616 2.328 5.256 3.504 7.872h-7.2zm18.682 5.256c0 .24.216.456.456.456h.84a.456.456 0 0 0 .456-.456v-13.056h.024l11.016 13.752h.432c.24 0 .456-.192.456-.432v-16.152a.472.472 0 0 0-.456-.456h-.84a.456.456 0 0 0-.456.456v12.792h-.048l-10.824-13.488h-.6c-.24 0-.456.192-.456.432v16.152zm22.019-7.92c0 4.8 3.864 8.616 8.664 8.616 3.48 0 5.928-1.584 5.928-1.584a.593.593 0 0 0 .192-.384v-5.496c0-.24-.192-.456-.432-.456h-4.152a.441.441 0 0 0-.456.456v.888c0 .24.192.432.456.432h2.76v3.36s-1.68 1.008-4.32 1.008c-3.792 0-6.672-3.24-6.672-6.936 0-3.72 2.88-6.888 6.672-6.888 1.608 0 3.336.792 4.56 1.872.264.24.408.264.624.024.192-.216.456-.456.672-.672.192-.192.168-.48-.024-.672-1.632-1.392-3.384-2.232-5.808-2.232a8.645 8.645 0 0 0-8.664 8.664zm23.459 7.92c0 .24.192.456.456.456h9.456a.456.456 0 0 0 .456-.456v-.696a.456.456 0 0 0-.456-.456h-8.064v-6.12h6.888c.24 0 .456-.192.456-.456v-.696a.472.472 0 0 0-.456-.456h-6.888v-5.856h8.064a.456.456 0 0 0 .456-.456v-.696a.456.456 0 0 0-.456-.456h-9.456a.456.456 0 0 0-.456.456v15.888zm18.874 0c0 .24.192.456.456.456h8.304a.456.456 0 0 0 .456-.456v-.696a.456.456 0 0 0-.456-.456h-6.912v-14.736a.472.472 0 0 0-.456-.456h-.936a.456.456 0 0 0-.456.456v15.888zm16.451 0c0 .24.192.456.456.456h9.456a.456.456 0 0 0 .456-.456v-.696a.456.456 0 0 0-.456-.456h-8.064v-6.12h6.888c.24 0 .456-.192.456-.456v-.696a.472.472 0 0 0-.456-.456h-6.888v-5.856h8.064a.456.456 0 0 0 .456-.456v-.696a.456.456 0 0 0-.456-.456h-9.456a.456.456 0 0 0-.456.456v15.888zm17.939-1.248c.312.288 2.232 1.944 5.064 1.944 2.808 0 5.184-1.824 5.184-4.32 0-2.784-2.088-4.008-5.328-5.328-2.016-.84-3.24-1.776-3.24-3.384 0-1.008.768-2.64 3.312-2.64 1.464 0 2.976 1.008 3.144 1.104.384.216.624.12.84-.216.096-.144.192-.312.288-.456.288-.456 0-.744-.144-.816 0 0-1.752-1.224-4.104-1.224-3.816 0-5.112 2.64-5.112 4.272 0 2.736 1.584 3.816 4.224 4.968 2.76 1.152 4.2 2.136 4.2 3.792 0 1.416-1.272 2.64-3.216 2.64-2.136 0-3.888-1.68-4.056-1.824-.336-.288-.6-.096-.84.216-.12.144-.24.312-.36.456-.288.456-.048.648.144.816zM1367.512 1033.296c.312.288 2.232 1.944 5.064 1.944 2.808 0 5.184-1.824 5.184-4.32 0-2.784-2.088-4.008-5.328-5.328-2.016-.84-3.24-1.776-3.24-3.384 0-1.008.768-2.64 3.312-2.64 1.464 0 2.976 1.008 3.144 1.104.384.216.624.12.84-.216.096-.144.192-.312.288-.456.288-.456 0-.744-.144-.816 0 0-1.752-1.224-4.104-1.224-3.816 0-5.112 2.64-5.112 4.272 0 2.736 1.584 3.816 4.224 4.968 2.76 1.152 4.2 2.136 4.2 3.792 0 1.416-1.272 2.64-3.216 2.64-2.136 0-3.888-1.68-4.056-1.824-.336-.288-.6-.096-.84.216-.12.144-.24.312-.36.456-.288.456-.048.648.144.816zm16.499 1.704h.96c.216 0 .36-.144.408-.264l1.752-3.96h8.52l1.776 3.96c.048.12.192.264.408.264h.96c.36 0 .552-.312.408-.624l-7.248-16.152c-.072-.144-.192-.264-.408-.264h-.24c-.216 0-.336.12-.408.264l-7.296 16.152c-.144.312.048.624.408.624zm3.792-5.712l3.504-7.872h.192c1.176 2.616 2.328 5.256 3.504 7.872h-7.2zm18.682 5.256c0 .24.216.456.456.456h.84a.456.456 0 0 0 .456-.456v-13.056h.024l11.016 13.752h.432c.24 0 .456-.192.456-.432v-16.152a.472.472 0 0 0-.456-.456h-.84a.456.456 0 0 0-.456.456v12.792h-.048l-10.824-13.488h-.6c-.24 0-.456.192-.456.432v16.152zm33.238 0c0 .24.192.456.432.456h5.376c4.632 0 8.424-3.768 8.424-8.424 0-4.608-3.792-8.376-8.424-8.376h-5.376c-.24 0-.432.216-.432.456v15.888zm1.824-1.2v-13.512h3.6c3.936 0 6.792 2.808 6.792 6.744 0 3.96-2.856 6.768-6.792 6.768h-3.6zm20.77 1.2c0 .24.216.456.456.456h.96c.24 0 .456-.216.456-.456v-15.888a.472.472 0 0 0-.456-.456h-.96a.472.472 0 0 0-.456.456v15.888zm11.435 0c0 .24.192.456.456.456h9.456a.456.456 0 0 0 .456-.456v-.696a.456.456 0 0 0-.456-.456h-8.064v-6.12h6.888c.24 0 .456-.192.456-.456v-.696a.472.472 0 0 0-.456-.456h-6.888v-5.856h8.064a.456.456 0 0 0 .456-.456v-.696a.456.456 0 0 0-.456-.456h-9.456a.456.456 0 0 0-.456.456v15.888zm17.579-7.92c0 4.8 3.864 8.616 8.664 8.616 3.48 0 5.928-1.584 5.928-1.584a.593.593 0 0 0 .192-.384v-5.496c0-.24-.192-.456-.432-.456h-4.152a.441.441 0 0 0-.456.456v.888c0 .24.192.432.456.432h2.76v3.36s-1.68 1.008-4.32 1.008c-3.792 0-6.672-3.24-6.672-6.936 0-3.72 2.88-6.888 6.672-6.888 1.608 0 3.336.792 4.56 1.872.264.24.408.264.624.024.192-.216.456-.456.672-.672.192-.192.168-.48-.024-.672-1.632-1.392-3.384-2.232-5.808-2.232a8.645 8.645 0 0 0-8.664 8.664zm22.234 0c0 4.8 3.816 8.616 8.616 8.616s8.64-3.816 8.64-8.616-3.84-8.664-8.64-8.664c-4.8 0-8.616 3.864-8.616 8.664zm1.68 0c0-3.816 3.12-6.984 6.936-6.984s6.96 3.168 6.96 6.984-3.144 6.936-6.96 6.936-6.936-3.12-6.936-6.936z" fill="#669DC9" mask="url(#c)"/></g></svg>