<?xml version="1.0" encoding="UTF-8" standalone="no"?>
<svg width="38px" height="48px" viewBox="0 0 38 48" version="1.1" xmlns="http://www.w3.org/2000/svg" xmlns:xlink="http://www.w3.org/1999/xlink" xmlns:sketch="http://www.bohemiancoding.com/sketch/ns">
    <!-- Generator: Sketch 3.4.4 (17249) - http://www.bohemiancoding.com/sketch -->
    <title>pinterest</title>
    <desc>Created with Sketch.</desc>
    <defs></defs>
    <g id="Page-1" stroke="none" stroke-width="1" fill="none" fill-rule="evenodd" sketch:type="MSPage">
        <g id="sbt-blog-story" sketch:type="MSArtboardGroup" transform="translate(-1082.000000, -2827.000000)" fill="#315BA6">
            <g id="Share" sketch:type="MSLayerGroup" transform="translate(619.000000, 2750.000000)">
                <path d="M483.101562,77 C470,77 463.4375,86.3984375 463.4375,94.2265625 C463.4375,98.9375 465.21875,103.15625 469.0625,104.773438 C469.71875,105.007812 470.28125,104.773438 470.445312,104.046875 C470.5625,103.601562 470.890625,102.382812 471.007812,101.84375 C471.171875,101.164062 471.101562,100.953125 470.609375,100.34375 C469.507812,99.0078125 468.78125,97.34375 468.78125,94.8828125 C468.78125,87.9453125 474.007812,81.7109375 482.398438,81.7109375 C489.78125,81.7109375 493.835938,86.2109375 493.835938,92.28125 C493.835938,100.226562 490.34375,106.953125 485.117188,106.953125 C482.210938,106.953125 480.054688,104.5625 480.710938,101.609375 C481.554688,98.1171875 483.171875,94.34375 483.171875,91.8359375 C483.171875,89.5625 481.953125,87.7109375 479.445312,87.7109375 C476.492188,87.7109375 474.171875,90.7109375 474.171875,94.8359375 C474.171875,97.4375 474.992188,99.21875 474.992188,99.21875 C474.992188,99.21875 471.992188,111.992188 471.5,114.21875 C470.445312,118.671875 471.335938,124.15625 471.382812,124.71875 C471.453125,125 471.828125,125.117188 472.0625,124.835938 C472.34375,124.507812 475.835938,120.171875 477.007812,115.835938 C477.382812,114.617188 478.953125,108.289062 478.953125,108.289062 C479.9375,110.117188 482.726562,111.664062 485.726562,111.664062 C494.5625,111.664062 500.5625,103.601562 500.5625,92.7734375 C500.5625,84.6171875 493.671875,77 483.101562,77 L483.101562,77 Z" id="pinterest" sketch:type="MSShapeGroup"></path>
            </g>
        </g>
    </g>
</svg>