<svg width="38" height="48" viewBox="0 0 38 48" xmlns="http://www.w3.org/2000/svg"><title>pinterest</title><path d="M20.102 0C7 0 .437 9.398.437 17.227c0 4.71 1.782 8.93 5.625 10.546.657.235 1.22 0 1.383-.726.117-.445.446-1.664.563-2.203.164-.68.094-.89-.399-1.5-1.101-1.336-1.828-3-1.828-5.461 0-6.938 5.227-13.172 13.617-13.172 7.383 0 11.438 4.5 11.438 10.57 0 7.946-3.492 14.672-8.719 14.672-2.906 0-5.062-2.39-4.406-5.344.844-3.492 2.46-7.265 2.46-9.773 0-2.274-1.218-4.125-3.726-4.125-2.953 0-5.273 3-5.273 7.125 0 2.602.82 4.383.82 4.383s-3 12.773-3.492 15c-1.055 4.453-.164 9.937-.117 10.5.07.281.445.398.68.117.28-.328 3.773-4.664 4.945-9 .375-1.219 1.945-7.547 1.945-7.547.985 1.828 3.774 3.375 6.774 3.375 8.835 0 14.835-8.062 14.835-18.89C37.563 7.616 30.672 0 20.102 0z" fill="#315BA6" fill-rule="evenodd"/></svg>