<svg width="23" height="16" viewBox="0 0 23 16" xmlns="http://www.w3.org/2000/svg"><title>Oval 1 + Line Copy</title><g fill="#000F2E" fill-rule="evenodd"><path d="M14.464-1.18a12.618 12.618 0 0 0-8.12-2.936C-.6-4.116-6.232 1.446-6.232 8.308c0 6.862 5.63 12.424 12.576 12.424 3.234 0 6.183-1.206 8.41-3.187v-.001c.076-.075.45-.476.053-.91-.44-.481-.975 0-.975 0v.002a11.312 11.312 0 0 1-7.488 2.81C.117 19.447-4.93 14.46-4.93 8.309S.117-2.831 6.344-2.831c2.728 0 5.23.957 7.18 2.55h-.001s.544.48.984-.002c.4-.436.019-.834-.037-.891a12.094 12.094 0 0 0-.006-.007z" fill="none"/><path d="M21.259 8.48c.18 0 .325-.145.325-.322a.323.323 0 0 0-.325-.321H.659a.323.323 0 0 0-.325.32c0 .178.146.322.325.322h20.6zm-5.341-7.387l6.416 6.084c.13.123.336.119.46-.01a.319.319 0 0 0-.01-.454L16.368.63a.328.328 0 0 0-.46.01.319.319 0 0 0 .01.454zm0 14.13l6.416-6.084a.328.328 0 0 1 .46.01.319.319 0 0 1-.01.454l-6.416 6.083a.328.328 0 0 1-.46-.009.319.319 0 0 1 .01-.454z"/></g></svg>