<?xml version="1.0" encoding="UTF-8" standalone="no"?>
<svg width="23px" height="16px" viewBox="0 0 23 16" version="1.1" xmlns="http://www.w3.org/2000/svg" xmlns:xlink="http://www.w3.org/1999/xlink" xmlns:sketch="http://www.bohemiancoding.com/sketch/ns">
    <!-- Generator: Sketch 3.4.4 (17249) - http://www.bohemiancoding.com/sketch -->
    <title>Oval 1 + Line Copy</title>
    <desc>Created with Sketch.</desc>
    <defs></defs>
    <g id="Round-2" stroke="none" stroke-width="1" fill="none" fill-rule="evenodd" sketch:type="MSPage">
        <g id="sbt-blog-mobile-index" sketch:type="MSArtboardGroup" transform="translate(-330.000000, -740.000000)" fill="#000F2E">
            <g id="Group" sketch:type="MSLayerGroup" transform="translate(10.000000, 425.000000)">
                <g id="Rectangle-157-+-Vehicle-Copy-2" sketch:type="MSShapeGroup">
                    <g id="Rectangle-157-Copy-+-Battery-Engineering-+-Oval-1-+-Line-Copy" transform="translate(0.000000, 307.000000)">
                        <g id="Oval-1-+-Line-Copy" transform="translate(328.500000, 16.232143) rotate(-90.000000) translate(-328.500000, -16.232143) translate(316.000000, 1.500000)">
                            <path d="M21.9123651,20.6960935 C23.7439799,18.5051783 24.8483664,15.671377 24.8483664,12.5764706 C24.8483664,5.6306777 19.2858701,0 12.4241832,0 C5.56249628,0 0,5.6306777 0,12.5764706 C0,15.8101649 1.20565755,18.7588111 3.1867653,20.9869287 L3.18844032,20.9852331 C3.263059,21.0624905 3.66386667,21.4358844 4.0978394,21.0392303 C4.57913215,20.5993254 4.0978394,20.0638071 4.0978394,20.0638071 L4.09656736,20.0650603 C2.34763302,18.0736472 1.28526033,15.4506449 1.28526033,12.5764706 C1.28526033,6.34920801 6.27232596,1.3010142 12.4241832,1.3010142 C18.5760404,1.3010142 23.563106,6.34920801 23.563106,12.5764706 C23.563106,15.3041915 22.6062413,17.8056852 21.0137521,19.755774 L21.0130859,19.755077 C21.0130859,19.755077 20.5335077,20.2994293 21.0148005,20.7393342 C21.4513775,21.1383686 21.8492142,20.7578022 21.9063328,20.7022428 L21.9068135,20.7027295 C21.9082275,20.7010405 21.9096411,20.6993511 21.9110542,20.6976613 C21.9132812,20.6955315 21.9139062,20.6950598 21.9128362,20.6965865 L21.9123651,20.6960935 Z" id="Oval-1" fill-opacity="0"></path>
                            <path d="M12.252945,27.4908349 C12.252945,27.6704675 12.3968027,27.8160885 12.5742601,27.8160885 C12.7517175,27.8160885 12.8955752,27.6704675 12.8955752,27.4908349 L12.8955752,6.89144333 C12.8955752,6.71181075 12.7517175,6.56618978 12.5742601,6.56618978 C12.3968027,6.56618978 12.252945,6.71181075 12.252945,6.89144333 L12.252945,27.4908349 Z M19.6391712,22.149697 L13.5553468,28.5661904 C13.4324668,28.6957895 13.4366416,28.9016853 13.5646715,29.0260715 C13.6927013,29.1504576 13.8961039,29.1462317 14.0189839,29.0166325 L20.1028084,22.6001391 C20.2256884,22.47054 20.2215136,22.2646442 20.0934837,22.140258 C19.9654538,22.0158719 19.7620512,22.0200978 19.6391712,22.149697 Z M5.50934895,22.149697 L11.5931734,28.5661904 C11.7160534,28.6957895 11.7118786,28.9016853 11.5838487,29.0260715 C11.4558189,29.1504576 11.2524163,29.1462317 11.1295363,29.0166325 L5.0457118,22.6001391 C4.92283182,22.47054 4.92700662,22.2646442 5.05503649,22.140258 C5.18306635,22.0158719 5.38646897,22.0200978 5.50934895,22.149697 Z" id="Line"></path>
                        </g>
                    </g>
                </g>
            </g>
        </g>
    </g>
</svg>