<svg width="295" height="40" viewBox="0 0 295 40" xmlns="http://www.w3.org/2000/svg"><title>Logo</title><g fill="none" fill-rule="evenodd"><g fill="#E9ECF1"><path d="M39.043 19.593H34.73a.666.666 0 0 0 0 1.331h4.314a.666.666 0 0 0 0-1.33M5.352 19.593H1.037a.666.666 0 0 0 0 1.331h4.315a.666.666 0 0 0 0-1.33M9.182 10.342a.664.664 0 0 0 .943 0 .668.668 0 0 0 0-.94l-3.052-3.05a.682.682 0 0 0-.941 0 .667.667 0 0 0 0 .94l3.05 3.05zM9.183 30.175l-3.05 3.05a.658.658 0 0 0-.196.472.664.664 0 0 0 1.137.47l3.052-3.052a.672.672 0 0 0-.002-.942.684.684 0 0 0-.94.002M20.04 34.281a.666.666 0 0 0-.666.666v4.314a.666.666 0 0 0 1.332 0v-4.314c0-.367-.3-.666-.667-.666M30.896 30.173a.686.686 0 0 0-.942.002.671.671 0 0 0 .002.942l3.05 3.05a.663.663 0 0 0 1.137-.471.653.653 0 0 0-.195-.469l-3.052-3.054zM30.426 10.538c.177 0 .345-.07.47-.195l3.051-3.05a.667.667 0 0 0 0-.942.682.682 0 0 0-.941 0l-3.05 3.05a.667.667 0 0 0 .47 1.137M25.503 11.068a.683.683 0 0 0-.91.236.668.668 0 0 0 .235.912 9.492 9.492 0 0 1 4.662 8.145c0 5.21-4.24 9.45-9.45 9.45-5.211 0-9.45-4.24-9.45-9.45a9.495 9.495 0 0 1 4.662-8.146.666.666 0 0 0 .235-.911.688.688 0 0 0-.91-.237 10.833 10.833 0 0 0-5.318 9.294c0 5.945 4.836 10.782 10.78 10.782 5.945 0 10.782-4.837 10.782-10.782 0-3.8-2.037-7.361-5.318-9.293"/><path d="M20.04 20.924a.667.667 0 0 0 .666-.665V.79a.667.667 0 0 0-1.332 0v19.47c0 .367.299.665.665.665"/></g><g fill="#E9ECF0"><path d="M48.396 23.732l1.89-1.093c.498.812 1.144 1.409 2.288 1.409.962 0 1.576-.482 1.576-1.145 0-.795-.63-1.077-1.692-1.541l-.58-.249c-1.675-.712-2.786-1.607-2.786-3.497 0-1.741 1.326-3.067 3.4-3.067 1.476 0 2.537.513 3.3 1.857l-1.808 1.16c-.398-.712-.83-.995-1.492-.995-.68 0-1.112.431-1.112.995 0 .695.432.977 1.426 1.41l.58.248c1.974.845 3.085 1.707 3.085 3.647 0 2.088-1.641 3.232-3.847 3.232-2.156 0-3.549-1.028-4.228-2.371M61.652 14.681h2.321v11.272h-2.321zM69.682 14.681h2.321v9.233h5.108v2.04h-7.43V14.68zM82.358 14.681h2.321v11.272h-2.321zM90.007 20.317c0-3.331 2.57-5.768 5.804-5.768 2.04 0 3.499.73 4.51 2.305l-1.774 1.259c-.53-.863-1.443-1.476-2.736-1.476-2.04 0-3.416 1.576-3.416 3.68 0 2.106 1.376 3.713 3.416 3.713 1.459 0 2.271-.695 2.901-1.657l1.808 1.243c-.979 1.525-2.537 2.487-4.71 2.487-3.233 0-5.803-2.453-5.803-5.786M114.308 20.317c0-2.104-1.392-3.713-3.449-3.713-2.056 0-3.45 1.609-3.45 3.713 0 2.106 1.394 3.713 3.45 3.713 2.057 0 3.45-1.607 3.45-3.713m-9.287 0c0-3.331 2.587-5.785 5.837-5.785 3.25 0 5.837 2.454 5.837 5.785 0 3.333-2.587 5.786-5.837 5.786-3.25 0-5.837-2.453-5.837-5.786M125.344 20.715c-.564-.53-1.343-1.541-1.343-1.541s.166 1.243.166 2.055v4.725h-2.173V14.582h.233l5.687 5.338c.547.513 1.327 1.542 1.327 1.542s-.15-1.277-.15-2.056v-4.725h2.173v11.373h-.232l-5.688-5.339zM148.39 23.914c.945 0 1.542-.629 1.542-1.558 0-.912-.614-1.541-1.675-1.541h-2.006v3.099h2.138zm-.349-5.072c.747 0 1.244-.415 1.244-1.061 0-.647-.414-1.061-1.128-1.061h-1.906v2.122h1.79zm-4.112-4.16h4.361c2.106 0 3.283 1.325 3.283 2.916 0 1.045-.614 1.758-1.592 2.072 1.543.366 2.29 1.393 2.29 2.802 0 2.006-1.427 3.482-3.782 3.482h-4.56V14.68zM157.368 14.681h7.462v2.039h-5.14v3.58h4.526v1.99h-4.527v1.624h5.373v2.04h-7.694V14.68zM176.23 22.737l-.814-1.956c-.331-.795-.68-2.022-.68-2.022s-.33 1.227-.662 2.022l-.813 1.956h2.968zm-1.56-8.155h.2l5.157 11.372h-2.438l-.53-1.278h-4.577l-.531 1.278h-2.239l4.958-11.372zM183.5 20.317c0-3.331 2.57-5.768 5.804-5.768 2.04 0 3.499.73 4.51 2.305l-1.774 1.259c-.53-.863-1.443-1.476-2.736-1.476-2.04 0-3.416 1.576-3.416 3.68 0 2.106 1.376 3.713 3.416 3.713 1.459 0 2.271-.695 2.901-1.657l1.808 1.243c-.979 1.525-2.537 2.487-4.71 2.487-3.233 0-5.803-2.453-5.803-5.786M199.062 14.681h2.322v5.77h4.825v-5.77h2.322v11.273h-2.322v-3.432h-4.825v3.432h-2.322V14.68zM224.032 15.742h-3.466v-1.06h8.126v1.06h-3.466v10.212h-1.194V15.742zM239.045 23.037l-1.99-5.006c-.216-.531-.431-1.344-.431-1.344s-.232.813-.448 1.344l-1.99 5.006h4.859zm-2.521-8.472h.2l4.775 11.389h-1.26l-.763-1.89h-5.704l-.746 1.89h-1.178l4.676-11.389zM246.979 14.681h1.194v10.212h5.323v1.06h-6.517V14.682zM259.041 14.681h6.866v1.061h-5.672v5.287h5.058v1.045h-5.058v2.819h5.904v1.06h-7.098V14.682zM273.79 18.113c-.315-.38-.78-1.045-.78-1.045s.1.797.1 1.277v7.609h-1.127V14.566h.199l6.732 7.956c.315.381.78 1.044.78 1.044s-.083-.795-.083-1.276v-7.608h1.11V26.07h-.198l-6.732-7.957zM289.602 15.742h-3.466v-1.06h8.126v1.06h-3.466v10.212h-1.194V15.742z"/></g></g></svg>