<svg width="60" height="60" viewBox="0 0 60 60" xmlns="http://www.w3.org/2000/svg" xmlns:xlink="http://www.w3.org/1999/xlink"><title>SBT_Logo_Icon</title><defs><path id="a" d="M58.565 29.39h-6.472a1 1 0 0 0 0 1.997h6.472a1 1 0 0 0 0-1.997"/><path id="b" d="M8.027 29.39H1.556a1 1 0 0 0 0 1.997h6.471a1 1 0 0 0 0-1.997"/><path id="c" d="M13.773 15.513a.996.996 0 0 0 1.415 0 1.002 1.002 0 0 0-.001-1.41L10.61 9.527a1.023 1.023 0 0 0-1.412 0 1 1 0 0 0 0 1.412l4.575 4.574z"/><path id="d" d="M13.775 45.262L9.2 49.838a.988.988 0 0 0-.294.707.996.996 0 0 0 1.705.706l4.579-4.578a1.007 1.007 0 0 0-.004-1.413 1.027 1.027 0 0 0-1.41.002"/><path id="e" d="M30.06 51.422a.999.999 0 0 0-.999.998v6.472a.999.999 0 0 0 1.998 0V52.42a1 1 0 0 0-1-.998"/><path id="f" d="M46.344 45.26a1.03 1.03 0 0 0-1.412.002 1.007 1.007 0 0 0 .001 1.413l4.577 4.576a.99.99 0 0 0 .706.292.995.995 0 0 0 .705-.292.988.988 0 0 0 .294-.706.98.98 0 0 0-.293-.704l-4.578-4.582z"/><path id="g" d="M45.638 15.808a.995.995 0 0 0 .707-.294l4.575-4.575a1 1 0 0 0 0-1.412 1.022 1.022 0 0 0-1.411 0l-4.576 4.576a1 1 0 0 0 .705 1.705"/><path id="h" d="M38.255 16.603c-.455-.273-1.095-.103-1.366.353-.28.472-.12 1.086.353 1.368 4.314 2.54 6.993 7.221 6.993 12.218 0 7.816-6.36 14.176-14.176 14.176s-14.175-6.36-14.175-14.176c0-4.997 2.68-9.679 6.994-12.22a.999.999 0 0 0 .353-1.366c-.268-.455-.908-.62-1.366-.355-4.92 2.899-7.977 8.241-7.977 13.94 0 8.918 7.254 16.173 16.171 16.173s16.173-7.255 16.173-16.172c0-5.7-3.057-11.042-7.977-13.94"/><path id="i" d="M30.06 31.387a1 1 0 0 0 .999-.998V1.184a.999.999 0 0 0-1.998 0v29.205c0 .55.448.998.998.998"/></defs><g fill="none" fill-rule="evenodd"><g><use fill="#E9ECF1" xlink:href="#a"/><use xlink:href="#a"/></g><g><use fill="#E9ECF1" xlink:href="#b"/><use xlink:href="#b"/></g><g><use fill="#E9ECF1" xlink:href="#c"/><use xlink:href="#c"/></g><g><use fill="#E9ECF1" xlink:href="#d"/><use xlink:href="#d"/></g><g><use fill="#E9ECF1" xlink:href="#e"/><use xlink:href="#e"/></g><g><use fill="#E9ECF1" xlink:href="#f"/><use xlink:href="#f"/></g><g><use fill="#E9ECF1" xlink:href="#g"/><use xlink:href="#g"/></g><g><use fill="#E9ECF1" xlink:href="#h"/><use xlink:href="#h"/></g><g><use fill="#E9ECF1" xlink:href="#i"/><use xlink:href="#i"/></g></g></svg>