<?xml version="1.0" encoding="UTF-8" standalone="no"?>
<svg width="22px" height="30px" viewBox="0 0 22 30" version="1.1" xmlns="http://www.w3.org/2000/svg" xmlns:xlink="http://www.w3.org/1999/xlink" xmlns:sketch="http://www.bohemiancoding.com/sketch/ns">
    <!-- Generator: Sketch 3.4.4 (17249) - http://www.bohemiancoding.com/sketch -->
    <title>Line</title>
    <desc>Created with Sketch.</desc>
    <defs></defs>
    <g id="Round-2" stroke="none" stroke-width="1" fill="none" fill-rule="evenodd" sketch:type="MSPage">
        <g id="sbt-work-mobile" sketch:type="MSArtboardGroup" transform="translate(-176.000000, -1658.000000)" fill="#000F2E">
            <g id="Group-Copy-+-Group" sketch:type="MSLayerGroup" transform="translate(0.000000, 1523.000000)">
                <g id="Group" sketch:type="MSShapeGroup">
                    <g id="Rectangle-141-+-Electic-Vehicles" transform="translate(42.000000, 26.000000)">
                        <g id="Design-+-Industry-+-Oval-1-+-Line-Copy" transform="translate(86.000000, 47.000000)">
                            <g id="Oval-1-+-Line-Copy-4" transform="translate(47.000000, 58.000000)">
                                <path d="M11.7628272,26.1246237 C11.7628272,26.2953291 11.9009306,26.4337131 12.0712897,26.4337131 C12.2416488,26.4337131 12.3797522,26.2953291 12.3797522,26.1246237 L12.3797522,6.54895948 C12.3797522,6.3782541 12.2416488,6.23987004 12.0712897,6.23987004 C11.9009306,6.23987004 11.7628272,6.3782541 11.7628272,6.54895948 L11.7628272,26.1246237 Z M18.8536044,21.0489242 L13.0131329,27.1465373 C12.8951681,27.2696957 12.8991759,27.4653591 13.0220846,27.5835637 C13.1449933,27.7017682 13.3402598,27.6977523 13.4582246,27.5745938 L19.2986961,21.4769807 C19.4166608,21.3538222 19.412653,21.1581588 19.2897444,21.0399543 C19.1668357,20.9217497 18.9715692,20.9257657 18.8536044,21.0489242 Z M5.28897499,21.0489242 L11.1294465,27.1465373 C11.2474113,27.2696957 11.2434035,27.4653591 11.1204948,27.5835637 C10.9975861,27.7017682 10.8023196,27.6977523 10.6843548,27.5745938 L4.84388333,21.4769807 C4.72591855,21.3538222 4.72992636,21.1581588 4.85283503,21.0399543 C4.97574369,20.9217497 5.17101021,20.9257657 5.28897499,21.0489242 Z" id="Line"></path>
                            </g>
                        </g>
                    </g>
                </g>
            </g>
        </g>
    </g>
</svg>