<svg width="253" height="103" viewBox="0 0 253 103" xmlns="http://www.w3.org/2000/svg"><title>Path</title><path d="M197.624 101.128c0 1.008.864 1.872 1.872 1.872h50.832c1.008 0 1.872-.576 1.872-1.584v-2.592c0-1.008-.144-1.872-1.872-1.872h-45.936V4.072c0-1.008-.864-1.872-1.728-1.872h-3.168c-1.008 0-1.872.864-1.872 1.872v97.056zM80.732 103c1.008 0 1.728-.72 2.016-1.296l11.52-26.496h55.008l11.664 26.496c.288.576 1.008 1.296 2.016 1.296h3.744c1.584 0 1.584-.864 1.296-1.728L124.076 1.048C123.644.184 122.924.04 122.204.04h-.432c-.72 0-1.44.432-1.728 1.008L75.692 101.272c-.432 1.152 0 1.728 1.008 1.728h4.032zM96.86 69.592l25.056-58.032h.288l24.624 58.032H96.86zm-67.212 31.536c0 1.008.864 1.872 1.872 1.872h2.592c1.44 0 2.304-.864 2.304-1.872V8.392h27.648c1.152 0 1.872-.864 1.872-1.872V4.072c0-1.008-.72-1.872-1.872-1.872H2.144C1.136 2.2.272 2.92.272 4.072v2.16c0 1.296.432 2.16 1.872 2.16h27.504v92.736z" fill="#000F2E" opacity=".2" fill-rule="evenodd"/></svg>