<?xml version="1.0" encoding="UTF-8" standalone="no"?>
<svg width="36px" height="30px" viewBox="0 0 36 30" version="1.1" xmlns="http://www.w3.org/2000/svg" xmlns:xlink="http://www.w3.org/1999/xlink" xmlns:sketch="http://www.bohemiancoding.com/sketch/ns">
    <!-- Generator: Sketch 3.4.4 (17249) - http://www.bohemiancoding.com/sketch -->
    <title>twitter</title>
    <desc>Created with Sketch.</desc>
    <defs></defs>
    <g id="Round-2" stroke="none" stroke-width="1" fill="none" fill-rule="evenodd" sketch:type="MSPage">
        <g id="sbt-work-mobile-industries-popup" sketch:type="MSArtboardGroup" transform="translate(-305.000000, -621.000000)" fill="#315BA6">
            <path d="M336.746094,625.628906 C338.292969,624.714844 339.453125,623.255859 339.998047,621.533203 C338.591797,622.376953 336.992188,622.992188 335.339844,623.326172 C333.951172,621.919922 332.035156,621.005859 329.908203,621.005859 C325.830078,621.005859 322.542969,624.292969 322.542969,628.371094 C322.542969,628.951172 322.578125,629.548828 322.701172,630.076172 C316.583984,629.742188 311.169922,626.964844 307.496094,622.5 C306.880859,623.589844 306.494141,624.714844 306.494141,626.085938 C306.494141,628.617188 307.794922,630.867188 309.798828,632.203125 C308.585938,632.167969 307.460938,631.833984 306.458984,631.289062 L306.458984,631.376953 C306.458984,634.962891 309.007812,637.951172 312.382812,638.619141 C311.75,638.794922 311.082031,638.882812 310.414062,638.882812 C309.957031,638.882812 309.5,638.830078 309.042969,638.742188 C309.957031,641.660156 312.716797,643.839844 315.916016,643.875 C313.419922,645.878906 310.203125,647.373047 306.757812,647.373047 C306.160156,647.373047 305.580078,647.337891 305,647.25 C308.251953,649.341797 312.171875,650.255859 316.337891,650.255859 C329.908203,650.255859 337.326172,639.005859 337.326172,629.25 L337.326172,628.283203 C338.75,627.246094 339.998047,625.962891 341,624.451172 C339.664062,625.048828 338.257812,625.453125 336.746094,625.628906 Z" id="twitter" sketch:type="MSShapeGroup"></path>
        </g>
    </g>
</svg>