<svg width="36" height="30" viewBox="0 0 36 30" xmlns="http://www.w3.org/2000/svg"><title>twitter</title><path d="M31.746 4.629A7.322 7.322 0 0 0 34.998.533a14.826 14.826 0 0 1-4.658 1.793C28.95.92 27.035.006 24.908.006a7.352 7.352 0 0 0-7.365 7.365c0 .58.035 1.178.158 1.705C11.584 8.742 6.17 5.965 2.496 1.5c-.615 1.09-1.002 2.215-1.002 3.586 0 2.531 1.3 4.781 3.305 6.117a7.403 7.403 0 0 1-3.34-.914v.088a7.379 7.379 0 0 0 5.924 7.242c-.633.176-1.301.264-1.969.264-.457 0-.914-.053-1.371-.14.914 2.917 3.674 5.097 6.873 5.132-2.496 2.004-5.713 3.498-9.158 3.498-.598 0-1.178-.035-1.758-.123 3.252 2.092 7.172 3.006 11.338 3.006 13.57 0 20.988-11.25 20.988-21.006v-.967A14.958 14.958 0 0 0 36 3.451a14.405 14.405 0 0 1-4.254 1.178z" fill="#315BA6" fill-rule="evenodd"/></svg>