<svg width="47" height="48" viewBox="0 0 47 48" xmlns="http://www.w3.org/2000/svg"><title>Artboard 1</title><path d="M47 9.602a19.206 19.206 0 0 1-5.672 1.57 9.763 9.763 0 0 0 4.336-5.461 19.768 19.768 0 0 1-6.21 2.39c-1.852-1.874-4.407-3.093-7.243-3.093a9.803 9.803 0 0 0-9.82 9.82c0 .774.047 1.57.21 2.274C14.446 16.656 7.228 12.953 2.329 7 1.508 8.453.992 9.953.992 11.781c0 3.375 1.735 6.375 4.406 8.157a9.87 9.87 0 0 1-4.453-1.22v.118c0 4.781 3.399 8.766 7.899 9.656a9.847 9.847 0 0 1-2.625.352c-.61 0-1.219-.07-1.828-.188 1.218 3.89 4.898 6.797 9.164 6.844-3.328 2.672-7.617 4.664-12.211 4.664-.797 0-1.57-.047-2.344-.164 4.336 2.79 9.563 4.008 15.117 4.008 18.094 0 27.985-15 27.985-28.008v-1.29A19.945 19.945 0 0 0 47 9.603z" fill="#669DC9" fill-rule="evenodd"/></svg>