<?xml version="1.0" encoding="UTF-8" standalone="no"?>
<svg width="36px" height="30px" viewBox="0 0 36 30" version="1.1" xmlns="http://www.w3.org/2000/svg" xmlns:xlink="http://www.w3.org/1999/xlink" xmlns:sketch="http://www.bohemiancoding.com/sketch/ns">
    <!-- Generator: Sketch 3.4.4 (17249) - http://www.bohemiancoding.com/sketch -->
    <title>twitter</title>
    <desc>Created with Sketch.</desc>
    <defs></defs>
    <g id="Page-1" stroke="none" stroke-width="1" fill="none" fill-rule="evenodd" sketch:type="MSPage">
        <g id="sbt-contact-desktop" sketch:type="MSArtboardGroup" transform="translate(-618.000000, -2221.000000)" fill="#E9ECF0">
            <g id="Footer" sketch:type="MSLayerGroup" transform="translate(-1.000000, 2146.664062)">
                <g id="Group-Copy" sketch:type="MSShapeGroup">
                    <g id="Group" transform="translate(619.000000, 68.000000)">
                        <path d="M36,10.4511719 C34.6640625,11.0488281 33.2578125,11.453125 31.7460938,11.6289062 C33.2929688,10.7148438 34.453125,9.25585938 34.9980469,7.53320312 C33.5917969,8.37695312 31.9921875,8.9921875 30.3398438,9.32617188 C28.9511719,7.91992188 27.0351562,7.00585938 24.9082031,7.00585938 C20.8300781,7.00585938 17.5429688,10.2929688 17.5429688,14.3710938 C17.5429688,14.9511719 17.578125,15.5488281 17.7011719,16.0761719 C11.5839844,15.7421875 6.16992188,12.9648438 2.49609375,8.5 C1.88085938,9.58984375 1.49414062,10.7148438 1.49414062,12.0859375 C1.49414062,14.6171875 2.79492188,16.8671875 4.79882812,18.203125 C3.5859375,18.1679688 2.4609375,17.8339844 1.45898438,17.2890625 L1.45898438,17.3769531 C1.45898438,20.9628906 4.0078125,23.9511719 7.3828125,24.6191406 C6.75,24.7949219 6.08203125,24.8828125 5.4140625,24.8828125 C4.95703125,24.8828125 4.5,24.8300781 4.04296875,24.7421875 C4.95703125,27.6601562 7.71679688,29.8398438 10.9160156,29.875 C8.41992188,31.8789062 5.203125,33.3730469 1.7578125,33.3730469 C1.16015625,33.3730469 0.580078125,33.3378906 0,33.25 C3.25195312,35.3417969 7.171875,36.2558594 11.3378906,36.2558594 C24.9082031,36.2558594 32.3261719,25.0058594 32.3261719,15.25 L32.3261719,14.2832031 C33.75,13.2460938 34.9980469,11.9628906 36,10.4511719 L36,10.4511719 Z" id="twitter"></path>
                    </g>
                </g>
            </g>
        </g>
    </g>
</svg>