<svg width="48" height="39" viewBox="0 0 48 39" xmlns="http://www.w3.org/2000/svg"><title>twitter</title><path d="M48 4.602a19.206 19.206 0 0 1-5.672 1.57A9.763 9.763 0 0 0 46.664.71a19.768 19.768 0 0 1-6.21 2.39C38.601 1.228 36.046.009 33.21.009a9.803 9.803 0 0 0-9.82 9.82c0 .774.047 1.57.21 2.274C15.446 11.656 8.228 7.953 3.329 2c-.82 1.453-1.336 2.953-1.336 4.781 0 3.375 1.735 6.375 4.406 8.157a9.87 9.87 0 0 1-4.453-1.22v.118c0 4.781 3.399 8.766 7.899 9.656a9.847 9.847 0 0 1-2.625.352c-.61 0-1.219-.07-1.828-.188 1.218 3.89 4.898 6.797 9.164 6.844-3.328 2.672-7.617 4.664-12.211 4.664-.797 0-1.57-.047-2.344-.164 4.336 2.79 9.563 4.008 15.117 4.008 18.094 0 27.985-15 27.985-28.008V9.71A19.945 19.945 0 0 0 48 4.603z" fill="#315BA6" fill-rule="evenodd"/></svg>